<svg xmlns="http://www.w3.org/2000/svg" xmlns:xlink="http://www.w3.org/1999/xlink" width="225" zoomAndPan="magnify" viewBox="0 0 168.75 168.749997" height="225" preserveAspectRatio="xMidYMid meet" version="1.2"><g id="4c70b7d820"><path style=" stroke:none;fill-rule:nonzero;fill:#fefefe;fill-opacity:1;" d="M 96.324219 64.21875 L 96.945312 64.386719 C 97.457031 64.542969 97.863281 64.765625 98.304688 65.070312 C 98.546875 65.230469 98.800781 65.371094 99.058594 65.507812 C 100.257812 66.148438 101.066406 67.15625 101.847656 68.242188 L 102.03125 68.484375 C 102.851562 69.671875 103.429688 71.390625 103.605469 72.816406 C 103.746094 74.894531 103.265625 76.789062 102.46875 78.703125 C 102.234375 79.179688 101.925781 79.554688 101.566406 79.945312 L 101.363281 80.179688 C 101.152344 80.417969 100.941406 80.648438 100.726562 80.878906 L 100.519531 81.101562 C 99.597656 82.058594 98.550781 82.667969 97.355469 83.21875 L 97.042969 83.363281 C 94.996094 84.261719 92.578125 84.128906 90.402344 83.914062 C 90.210938 83.890625 90.019531 83.871094 89.824219 83.847656 L 89.558594 83.816406 C 89.070312 83.753906 88.683594 83.644531 88.253906 83.40625 C 88.027344 83.28125 87.785156 83.191406 87.542969 83.097656 C 86.960938 82.859375 86.457031 82.546875 85.933594 82.191406 L 85.695312 82.035156 C 84.636719 81.335938 83.902344 80.4375 83.21875 79.382812 L 83.023438 79.101562 C 82.339844 78.070312 81.796875 76.777344 81.707031 75.53125 C 81.695312 75.296875 81.683594 75.0625 81.675781 74.832031 C 81.644531 74.128906 81.601562 73.433594 81.535156 72.734375 C 81.394531 72.839844 81.394531 72.839844 81.253906 73.015625 C 81.1875 73.230469 81.125 73.445312 81.066406 73.660156 C 80.820312 74.488281 80.351562 75.03125 79.757812 75.636719 L 79.59375 75.8125 C 78.710938 76.664062 77.453125 77.074219 76.289062 77.371094 C 76.167969 77.402344 76.046875 77.433594 75.925781 77.46875 C 74.980469 77.722656 74.027344 77.710938 73.050781 77.703125 L 72.6875 77.703125 C 72.390625 77.699219 72.09375 77.699219 71.800781 77.699219 L 71.800781 77.914062 C 71.8125 79.839844 71.777344 81.761719 71.707031 83.6875 C 71.429688 83.824219 71.15625 83.792969 70.851562 83.792969 L 70.644531 83.792969 C 70.417969 83.792969 70.191406 83.792969 69.964844 83.792969 L 69.492188 83.789062 C 69.078125 83.789062 68.664062 83.789062 68.25 83.789062 C 67.828125 83.789062 67.40625 83.785156 66.984375 83.785156 C 66.15625 83.785156 65.328125 83.785156 64.5 83.78125 C 64.394531 83.363281 64.390625 82.953125 64.394531 82.527344 L 64.390625 82.285156 C 64.390625 82.023438 64.390625 81.757812 64.390625 81.492188 L 64.390625 80.921875 C 64.390625 80.40625 64.390625 79.890625 64.390625 79.375 C 64.390625 78.835938 64.390625 78.296875 64.390625 77.757812 C 64.390625 76.855469 64.390625 75.949219 64.390625 75.042969 C 64.394531 73.996094 64.394531 72.949219 64.390625 71.902344 C 64.390625 71.003906 64.390625 70.105469 64.390625 69.207031 C 64.390625 68.671875 64.390625 68.132812 64.390625 67.597656 C 64.390625 67.09375 64.390625 66.589844 64.390625 66.082031 C 64.390625 65.898438 64.390625 65.710938 64.390625 65.527344 C 64.390625 65.273438 64.390625 65.023438 64.394531 64.769531 L 64.390625 64.542969 C 64.394531 64.375 64.398438 64.203125 64.40625 64.03125 L 64.5 63.9375 C 64.804688 63.902344 65.113281 63.898438 65.417969 63.886719 L 65.726562 63.875 C 67.28125 63.820312 68.835938 63.824219 70.394531 63.824219 C 70.851562 63.824219 71.308594 63.824219 71.769531 63.824219 C 72.128906 63.820312 72.484375 63.820312 72.84375 63.820312 C 73.011719 63.820312 73.183594 63.820312 73.351562 63.820312 C 74.550781 63.816406 75.65625 63.863281 76.789062 64.304688 C 76.953125 64.371094 77.121094 64.429688 77.292969 64.484375 C 78.582031 64.90625 79.539062 65.667969 80.453125 66.644531 C 80.945312 67.195312 81.316406 67.71875 81.492188 68.449219 C 81.605469 69.03125 81.667969 69.617188 81.722656 70.207031 L 81.75 70.515625 C 81.808594 71.164062 81.863281 71.808594 81.910156 72.457031 L 81.9375 72.273438 C 82.234375 70.40625 82.625 69.121094 83.816406 67.621094 C 83.960938 67.453125 84.105469 67.285156 84.25 67.121094 L 84.453125 66.886719 C 85.433594 65.832031 86.699219 65.070312 88.027344 64.539062 C 88.359375 64.414062 88.359375 64.414062 88.632812 64.269531 C 90.789062 63.207031 94.109375 63.445312 96.324219 64.21875 M 71.800781 69.085938 C 71.585938 69.511719 71.6875 70.109375 71.6875 70.578125 L 71.683594 70.945312 L 71.683594 71.625 C 71.6875 71.910156 71.6875 71.910156 71.894531 72.175781 C 72.546875 72.296875 73.316406 72.144531 73.953125 71.988281 L 74.234375 71.800781 C 74.277344 71.554688 74.296875 71.328125 74.308594 71.082031 L 74.324219 70.882812 C 74.347656 70.4375 74.308594 70.066406 74.140625 69.648438 C 73.976562 69.5 73.976562 69.5 73.773438 69.429688 C 73.523438 69.328125 73.339844 69.238281 73.109375 69.085938 C 72.789062 69.0625 72.789062 69.0625 72.4375 69.074219 L 72.078125 69.078125 Z M 91.550781 70.582031 C 91.179688 70.800781 90.851562 71.050781 90.523438 71.332031 L 90.324219 71.496094 C 89.984375 71.820312 89.820312 72.152344 89.683594 72.605469 C 89.460938 73.453125 89.449219 74.214844 89.652344 75.070312 C 89.894531 75.851562 90.367188 76.34375 90.949219 76.894531 C 91.238281 77.082031 91.496094 77.160156 91.832031 77.230469 C 92.050781 77.234375 92.269531 77.238281 92.488281 77.230469 L 92.488281 77.699219 L 92.675781 77.605469 L 92.582031 77.230469 L 92.785156 77.234375 C 93.546875 77.25 93.546875 77.25 94.265625 77.042969 C 94.417969 76.820312 94.417969 76.820312 94.546875 76.574219 L 94.8125 76.433594 C 95.105469 76.242188 95.253906 76.011719 95.425781 75.707031 C 95.835938 74.777344 95.71875 73.734375 95.671875 72.734375 L 95.390625 72.640625 C 95.316406 72.46875 95.316406 72.46875 95.261719 72.25 C 95.15625 71.917969 95.054688 71.644531 94.8125 71.382812 C 94.289062 70.941406 93.652344 70.523438 92.992188 70.332031 C 92.476562 70.253906 92.019531 70.378906 91.550781 70.582031 M 116.640625 63.84375 L 116.921875 64.03125 C 117.125 64.09375 117.328125 64.15625 117.535156 64.210938 L 117.890625 64.3125 C 118.089844 64.367188 118.292969 64.421875 118.492188 64.472656 C 119.59375 64.769531 120.441406 65.484375 121.320312 66.183594 L 121.585938 66.375 C 121.789062 66.558594 121.789062 66.558594 121.863281 66.734375 L 121.882812 66.933594 C 121.800781 67.101562 121.800781 67.101562 121.667969 67.277344 L 121.523438 67.472656 L 121.367188 67.679688 C 121.261719 67.824219 121.15625 67.96875 121.050781 68.113281 L 120.898438 68.328125 C 120.667969 68.652344 120.472656 68.996094 120.277344 69.34375 C 120.136719 69.585938 119.992188 69.828125 119.84375 70.066406 L 119.707031 70.292969 C 119.613281 70.441406 119.523438 70.585938 119.429688 70.730469 C 119.179688 71.140625 118.96875 71.539062 118.792969 71.988281 C 118.367188 71.847656 118.019531 71.699219 117.652344 71.441406 C 117.058594 71.027344 116.390625 70.71875 115.703125 70.488281 C 114.757812 70.417969 114.757812 70.417969 113.847656 70.640625 C 113.71875 70.714844 113.585938 70.789062 113.457031 70.863281 L 113.222656 70.972656 C 112.726562 71.230469 112.421875 71.515625 112.097656 71.976562 C 111.746094 72.554688 111.585938 73.019531 111.5625 73.703125 C 111.585938 74.433594 111.675781 75.058594 112.058594 75.695312 C 112.402344 76.199219 112.800781 76.652344 113.269531 77.042969 C 113.753906 77.203125 114.265625 77.15625 114.773438 77.160156 L 115.109375 77.164062 C 115.890625 77.167969 116.566406 77.097656 117.261719 76.722656 L 117.441406 76.585938 C 117.84375 76.296875 118.261719 76.058594 118.699219 75.824219 L 118.855469 76.113281 C 119.195312 76.742188 119.539062 77.339844 119.984375 77.902344 C 120.414062 78.445312 120.640625 79.011719 120.851562 79.664062 C 121.230469 79.59375 121.488281 79.542969 121.789062 79.289062 C 121.894531 79.054688 121.980469 78.816406 122.066406 78.574219 C 122.191406 78.285156 122.386719 78.171875 122.628906 77.976562 C 122.84375 77.558594 122.992188 77.125 123.097656 76.667969 C 123.480469 76.8125 123.839844 76.988281 124.199219 77.183594 L 124.523438 77.355469 L 124.785156 77.511719 L 124.878906 77.699219 C 125.105469 77.765625 125.328125 77.824219 125.558594 77.875 L 125.769531 77.925781 C 125.914062 77.960938 126.0625 77.992188 126.207031 78.027344 C 126.429688 78.078125 126.652344 78.128906 126.875 78.179688 L 127.304688 78.28125 L 127.503906 78.328125 C 127.902344 78.417969 128.308594 78.488281 128.714844 78.539062 L 128.773438 78.28125 C 128.902344 77.976562 128.902344 77.976562 129.195312 77.757812 L 129.464844 77.605469 C 129.3125 77.476562 129.15625 77.351562 128.996094 77.230469 L 128.835938 77.097656 C 128.371094 76.75 127.902344 76.570312 127.351562 76.398438 C 125.769531 75.902344 124.140625 75.089844 123.003906 73.859375 C 122.375 73.121094 122.144531 72.335938 121.921875 71.40625 L 121.847656 71.09375 C 121.636719 70.109375 121.734375 69.3125 122.035156 68.363281 C 122.335938 67.46875 122.84375 66.507812 123.550781 65.871094 C 124.40625 65.214844 125.261719 64.6875 126.28125 64.3125 C 126.40625 64.257812 126.527344 64.207031 126.648438 64.152344 L 126.9375 64.03125 L 127.140625 63.933594 C 127.484375 63.816406 127.828125 63.773438 128.1875 63.738281 L 128.414062 63.714844 C 130.097656 63.550781 131.601562 63.738281 133.214844 64.199219 L 133.550781 64.292969 C 134.140625 64.46875 134.542969 64.632812 134.988281 65.058594 C 135.144531 65.15625 135.308594 65.25 135.472656 65.335938 L 135.738281 65.476562 L 136.015625 65.621094 C 136.210938 65.726562 136.402344 65.832031 136.597656 65.9375 L 136.859375 66.078125 L 137.046875 66.183594 C 137.035156 66.378906 137.023438 66.574219 137.011719 66.769531 C 137.003906 66.875 137 66.984375 136.992188 67.097656 C 136.957031 67.382812 136.921875 67.539062 136.765625 67.773438 L 136.597656 67.941406 C 136.324219 68.214844 136.128906 68.523438 135.917969 68.84375 L 135.792969 69.03125 C 135.578125 69.355469 135.375 69.6875 135.175781 70.019531 C 135.097656 70.148438 135.019531 70.277344 134.941406 70.40625 L 134.828125 70.59375 C 134.707031 70.769531 134.578125 70.90625 134.425781 71.050781 L 134.363281 70.882812 C 134.25 70.65625 134.25 70.65625 134 70.527344 C 133.910156 70.480469 133.816406 70.4375 133.722656 70.390625 C 133.226562 70.144531 133.226562 70.144531 133.023438 69.835938 C 132.230469 69.644531 131.304688 69.558594 130.496094 69.648438 C 130.285156 69.722656 130.285156 69.722656 130.121094 69.835938 C 130.015625 69.992188 130.015625 69.992188 130.027344 70.207031 C 130.097656 70.484375 130.140625 70.640625 130.308594 70.863281 C 130.542969 71.011719 130.785156 71.078125 131.054688 71.144531 L 131.292969 71.203125 C 131.492188 71.25 131.695312 71.292969 131.898438 71.332031 L 131.804688 71.613281 L 132.097656 71.675781 C 133.691406 72.027344 134.722656 72.882812 135.910156 73.96875 L 136.0625 74.109375 C 136.207031 74.242188 136.347656 74.378906 136.484375 74.515625 L 136.742188 74.753906 C 136.953125 75.019531 137.015625 75.269531 137.074219 75.605469 C 137.179688 76.449219 137.160156 77.296875 137.152344 78.148438 C 137.152344 78.3125 137.152344 78.480469 137.148438 78.644531 C 137.148438 79.046875 137.144531 79.449219 137.140625 79.851562 L 136.859375 79.851562 L 136.734375 80.1875 C 136.679688 80.335938 136.625 80.480469 136.566406 80.628906 L 136.488281 80.851562 C 136.40625 81.0625 136.324219 81.25 136.203125 81.441406 C 135.921875 81.609375 135.921875 81.609375 135.644531 81.722656 C 135.460938 81.894531 135.460938 81.894531 135.316406 82.085938 C 134.847656 82.640625 134.492188 82.925781 133.8125 83.183594 L 133.5 83.292969 C 133.210938 83.394531 133.210938 83.394531 132.992188 83.550781 C 132.632812 83.746094 132.28125 83.785156 131.878906 83.839844 L 131.636719 83.875 C 131.414062 83.910156 131.1875 83.9375 130.960938 83.96875 L 130.679688 84.007812 C 128.5625 84.257812 126.203125 84.035156 124.242188 83.199219 C 124.046875 83.113281 123.855469 83.027344 123.660156 82.941406 L 123.332031 82.796875 C 122.703125 82.511719 122.289062 82.191406 121.882812 81.628906 C 121.546875 81.679688 121.316406 81.761719 121.035156 81.953125 L 120.820312 82.09375 L 120.59375 82.242188 C 118.671875 83.484375 116.867188 83.949219 114.59375 84.085938 C 113.792969 84.101562 113.003906 84.03125 112.203125 83.945312 L 111.894531 83.914062 C 111.238281 83.839844 110.683594 83.6875 110.085938 83.40625 L 109.890625 83.320312 C 109 82.914062 108.222656 82.445312 107.464844 81.816406 L 107.222656 81.613281 C 105.914062 80.492188 104.898438 79.097656 104.328125 77.472656 C 103.722656 75.640625 103.675781 73.390625 104.039062 71.496094 C 104.359375 70.078125 104.917969 68.699219 105.875 67.585938 L 106.023438 67.414062 C 107.207031 66.050781 108.5 65.023438 110.203125 64.386719 C 110.390625 64.320312 110.578125 64.261719 110.769531 64.203125 C 111.015625 64.128906 111.015625 64.128906 111.222656 64.046875 C 112.820312 63.417969 114.976562 63.515625 116.640625 63.84375 "/><path style=" stroke:none;fill-rule:nonzero;fill:#fdfdfd;fill-opacity:1;" d="M 33.886719 59.816406 C 34.5625 60.375 35.164062 60.996094 35.777344 61.617188 C 36.199219 62.042969 36.628906 62.457031 37.085938 62.847656 C 37.375 63.101562 37.640625 63.378906 37.914062 63.65625 C 38.304688 64.054688 38.703125 64.4375 39.128906 64.800781 C 39.421875 65.058594 39.691406 65.339844 39.964844 65.617188 C 40.265625 65.917969 40.578125 66.199219 40.902344 66.476562 C 41.140625 66.691406 41.367188 66.921875 41.59375 67.15625 C 41.910156 67.476562 42.234375 67.777344 42.59375 68.054688 C 43.203125 68.539062 43.742188 69.097656 44.289062 69.65625 C 44.613281 69.988281 44.941406 70.3125 45.296875 70.617188 C 45.863281 71.101562 46.375 71.644531 46.898438 72.175781 C 47.382812 72.667969 47.867188 73.144531 48.390625 73.59375 C 48.863281 74.015625 49.300781 74.480469 49.75 74.933594 C 50.226562 75.414062 50.707031 75.886719 51.222656 76.332031 C 51.507812 76.582031 51.769531 76.855469 52.035156 77.128906 C 52.480469 77.582031 52.933594 77.988281 53.4375 78.371094 C 53.703125 78.59375 53.914062 78.84375 54.136719 79.109375 C 54.347656 79.347656 54.582031 79.550781 54.828125 79.757812 C 55.144531 80.03125 55.453125 80.316406 55.757812 80.601562 C 56.011719 80.839844 56.28125 81.054688 56.566406 81.253906 C 56.703125 81.371094 56.703125 81.371094 56.820312 81.535156 C 56.847656 81.789062 56.847656 81.789062 56.839844 82.066406 L 56.832031 82.351562 L 56.820312 82.566406 L 56.578125 82.5625 C 55.816406 82.558594 55.054688 82.558594 54.296875 82.554688 C 53.902344 82.554688 53.511719 82.554688 53.121094 82.550781 C 52.742188 82.550781 52.363281 82.546875 51.984375 82.546875 C 51.839844 82.546875 51.699219 82.546875 51.554688 82.546875 C 50.527344 82.539062 49.53125 82.597656 48.519531 82.804688 C 48.132812 82.878906 47.738281 82.882812 47.347656 82.902344 C 47.03125 82.921875 46.738281 82.949219 46.429688 83.035156 C 48.351562 83.042969 50.269531 83.035156 52.1875 82.988281 C 54.402344 82.929688 54.402344 82.929688 55.394531 82.929688 L 55.640625 82.925781 C 56.078125 82.929688 56.488281 82.960938 56.914062 83.035156 C 56.769531 83.402344 56.535156 83.601562 56.242188 83.859375 C 55.773438 84.277344 55.320312 84.710938 54.875 85.15625 L 54.699219 85.328125 C 54.429688 85.601562 54.167969 85.878906 53.917969 86.175781 C 53.320312 86.863281 52.652344 87.488281 52.003906 88.128906 C 51.824219 88.308594 51.644531 88.484375 51.464844 88.664062 L 51.300781 88.824219 C 51.03125 89.097656 50.769531 89.371094 50.519531 89.664062 C 50.132812 90.109375 49.714844 90.523438 49.296875 90.941406 L 49.042969 91.191406 C 48.738281 91.496094 48.429688 91.800781 48.125 92.105469 C 47.820312 92.40625 47.519531 92.707031 47.21875 93.003906 L 46.980469 93.242188 C 46.582031 93.636719 46.203125 94.039062 45.839844 94.464844 C 45.574219 94.761719 45.289062 95.042969 45.007812 95.324219 L 44.820312 95.507812 C 44.558594 95.769531 44.296875 96.027344 44.035156 96.289062 C 43.839844 96.480469 43.648438 96.671875 43.457031 96.863281 L 43.28125 97.035156 C 42.933594 97.378906 42.609375 97.734375 42.292969 98.105469 C 42.011719 98.421875 41.714844 98.71875 41.414062 99.019531 L 41.21875 99.21875 C 41.082031 99.355469 40.945312 99.492188 40.8125 99.628906 C 40.601562 99.839844 40.394531 100.046875 40.1875 100.257812 L 39.789062 100.660156 L 39.601562 100.851562 L 39.425781 101.023438 L 39.273438 101.179688 L 39.128906 101.289062 L 38.847656 101.289062 C 38.769531 100.636719 38.746094 100.003906 38.757812 99.351562 L 38.765625 99.070312 C 38.769531 98.769531 38.777344 98.46875 38.785156 98.167969 L 38.792969 97.855469 C 38.84375 95.550781 38.96875 93.289062 39.339844 91.011719 L 39.398438 90.640625 L 39.457031 90.289062 C 39.5 89.988281 39.523438 89.691406 39.542969 89.386719 C 39.566406 89.074219 39.59375 88.9375 39.75 88.660156 L 39.953125 88.460938 L 40.1875 88.230469 L 40.441406 87.996094 L 40.703125 87.75 C 40.839844 87.621094 40.980469 87.496094 41.121094 87.371094 C 42.027344 86.550781 42.886719 85.683594 43.648438 84.730469 L 43.886719 84.449219 L 44.097656 84.1875 C 44.476562 83.886719 44.839844 83.851562 45.308594 83.78125 C 45.625 83.746094 45.941406 83.722656 46.257812 83.703125 L 46.519531 83.683594 C 46.789062 83.664062 47.0625 83.648438 47.332031 83.628906 L 47.886719 83.59375 C 48.339844 83.5625 48.789062 83.53125 49.238281 83.5 C 48.988281 83.375 48.789062 83.390625 48.507812 83.382812 L 48.164062 83.375 L 47.800781 83.367188 C 47.429688 83.355469 47.058594 83.339844 46.683594 83.328125 C 46.472656 83.320312 46.257812 83.3125 46.042969 83.304688 C 44.714844 83.257812 44.714844 83.257812 44.171875 82.96875 C 43.90625 82.757812 43.675781 82.527344 43.4375 82.285156 C 43.265625 82.136719 43.09375 81.988281 42.921875 81.84375 C 42.320312 81.332031 41.734375 80.800781 41.15625 80.265625 C 40.886719 80.019531 40.617188 79.78125 40.34375 79.542969 C 40.132812 79.359375 39.925781 79.171875 39.71875 78.984375 C 38.992188 78.328125 38.238281 77.695312 37.472656 77.078125 C 37.0625 76.742188 36.667969 76.390625 36.277344 76.035156 C 36.035156 75.820312 35.785156 75.613281 35.53125 75.410156 C 35.070312 75.035156 34.632812 74.644531 34.199219 74.238281 C 33.980469 74.035156 33.980469 74.035156 33.699219 73.859375 C 33.664062 73.65625 33.664062 73.65625 33.660156 73.402344 L 33.652344 73.109375 L 33.652344 72.78125 L 33.648438 72.4375 C 33.644531 72.121094 33.640625 71.804688 33.636719 71.488281 C 33.636719 71.222656 33.632812 70.957031 33.628906 70.691406 C 33.621094 69.882812 33.613281 69.074219 33.609375 68.265625 C 33.605469 67.839844 33.605469 67.417969 33.601562 66.996094 C 33.59375 66.011719 33.589844 65.03125 33.585938 64.046875 C 33.582031 63.695312 33.582031 63.34375 33.578125 62.992188 C 33.578125 62.574219 33.574219 62.160156 33.574219 61.742188 C 33.574219 61.585938 33.574219 61.433594 33.574219 61.277344 C 33.574219 61.066406 33.574219 60.855469 33.574219 60.644531 L 33.570312 60.28125 C 33.582031 60.191406 33.59375 60.097656 33.605469 60.003906 Z M 33.886719 59.816406 "/><path style=" stroke:none;fill-rule:nonzero;fill:#fefefe;fill-opacity:1;" d="M 32.765625 60.285156 L 33.042969 60.285156 C 33.050781 62.289062 33.050781 64.296875 33.046875 66.300781 L 33.046875 66.554688 C 33.042969 67.132812 33.046875 67.710938 33.046875 68.289062 C 33.046875 68.996094 33.046875 69.699219 33.042969 70.40625 C 33.039062 70.777344 33.039062 71.144531 33.039062 71.515625 C 33.042969 71.863281 33.039062 72.214844 33.035156 72.5625 C 33.035156 72.75 33.039062 72.9375 33.039062 73.125 C 33.035156 73.445312 33.023438 73.734375 32.953125 74.046875 C 32.769531 74.320312 32.558594 74.503906 32.296875 74.703125 C 32.183594 74.824219 32.074219 74.949219 31.964844 75.074219 C 31.65625 75.429688 31.34375 75.78125 31.019531 76.125 L 30.84375 76.3125 C 30.230469 76.964844 29.59375 77.597656 28.957031 78.226562 C 28.609375 78.566406 28.269531 78.910156 27.953125 79.28125 C 27.46875 79.84375 26.925781 80.359375 26.394531 80.882812 C 26.253906 81.019531 26.113281 81.160156 25.972656 81.296875 L 25.722656 81.546875 C 25.527344 81.746094 25.339844 81.953125 25.15625 82.167969 C 24.769531 82.617188 24.347656 83.035156 23.925781 83.453125 L 23.675781 83.699219 C 23.367188 84.007812 23.0625 84.3125 22.753906 84.617188 C 22.453125 84.917969 22.152344 85.214844 21.847656 85.515625 L 21.613281 85.753906 C 21.210938 86.152344 20.820312 86.558594 20.453125 86.992188 C 20.191406 87.292969 19.902344 87.566406 19.617188 87.847656 C 19.359375 88.097656 19.117188 88.355469 18.886719 88.625 C 18.40625 89.179688 17.875 89.6875 17.355469 90.203125 C 16.882812 90.667969 16.4375 91.144531 16.007812 91.644531 C 15.832031 91.839844 15.65625 92.035156 15.480469 92.230469 L 15.351562 92.375 C 15.089844 92.660156 14.832031 92.925781 14.507812 93.144531 C 14.222656 93.222656 14.011719 93.207031 13.714844 93.171875 C 12.96875 92.890625 12.429688 92.214844 11.886719 91.644531 C 11.734375 91.488281 11.578125 91.332031 11.421875 91.175781 L 11.226562 90.980469 C 10.996094 90.753906 10.75 90.539062 10.503906 90.324219 C 9.769531 89.691406 9.0625 89.035156 8.367188 88.363281 L 8.109375 88.125 C 7.53125 87.558594 7.53125 87.558594 7.421875 87.226562 C 7.410156 87.03125 7.410156 87.03125 7.488281 86.683594 C 7.640625 86.4375 7.640625 86.4375 7.875 86.203125 L 8.007812 86.070312 C 8.175781 85.898438 8.347656 85.730469 8.519531 85.5625 C 8.730469 85.347656 8.945312 85.132812 9.160156 84.921875 C 9.386719 84.695312 9.613281 84.46875 9.839844 84.242188 C 10.324219 83.761719 10.789062 83.273438 11.234375 82.753906 C 11.40625 82.558594 11.582031 82.363281 11.761719 82.171875 L 11.886719 82.03125 C 12.203125 81.6875 12.53125 81.359375 12.863281 81.03125 C 13.003906 80.894531 13.140625 80.753906 13.28125 80.617188 L 13.421875 80.480469 C 13.675781 80.226562 13.921875 79.960938 14.160156 79.683594 C 14.640625 79.132812 15.167969 78.625 15.691406 78.113281 C 16.109375 77.695312 16.515625 77.28125 16.894531 76.832031 C 17.09375 76.601562 17.3125 76.390625 17.53125 76.175781 C 17.691406 76.011719 17.839844 75.84375 17.992188 75.667969 C 18.417969 75.175781 18.882812 74.722656 19.347656 74.265625 C 19.730469 73.890625 20.097656 73.496094 20.449219 73.089844 C 20.628906 72.882812 20.820312 72.691406 21.015625 72.503906 C 21.273438 72.25 21.519531 71.992188 21.753906 71.71875 C 22.097656 71.3125 22.476562 70.945312 22.855469 70.574219 C 23.042969 70.386719 23.214844 70.195312 23.382812 69.996094 C 23.867188 69.4375 24.394531 68.925781 24.917969 68.40625 C 25.113281 68.210938 25.304688 68.019531 25.496094 67.828125 C 25.976562 67.351562 26.453125 66.875 26.933594 66.398438 C 27.339844 65.992188 27.746094 65.589844 28.152344 65.183594 C 28.339844 64.996094 28.527344 64.808594 28.71875 64.621094 C 29.488281 63.855469 29.488281 63.855469 30.210938 63.046875 C 30.394531 62.832031 30.59375 62.636719 30.796875 62.4375 C 31.273438 61.96875 31.707031 61.472656 32.140625 60.96875 L 32.367188 60.707031 L 32.574219 60.464844 Z M 32.765625 60.285156 "/><path style=" stroke:none;fill-rule:nonzero;fill:#fdfdfd;fill-opacity:1;" d="M 146.503906 63.785156 C 146.957031 63.78125 147.414062 63.777344 147.871094 63.765625 C 148.3125 63.757812 148.757812 63.753906 149.199219 63.75 C 149.367188 63.75 149.539062 63.746094 149.707031 63.742188 C 150.210938 63.726562 150.6875 63.726562 151.183594 63.84375 C 151.445312 64.054688 151.582031 64.238281 151.742188 64.53125 C 151.890625 64.917969 151.980469 65.289062 152.035156 65.699219 C 152.113281 66.234375 152.226562 66.714844 152.429688 67.21875 C 152.695312 67.886719 152.882812 68.558594 153.0625 69.253906 C 153.160156 69.632812 153.261719 70.011719 153.363281 70.386719 C 153.394531 70.503906 153.394531 70.503906 153.425781 70.625 C 153.632812 71.394531 153.847656 72.164062 154.0625 72.929688 C 154.105469 73.074219 154.144531 73.214844 154.183594 73.355469 C 154.242188 73.554688 154.296875 73.75 154.351562 73.949219 L 154.449219 74.289062 C 154.613281 74.863281 154.613281 74.863281 154.925781 75.355469 C 154.984375 75.714844 155.035156 76.074219 155.078125 76.433594 C 155.148438 76.921875 155.273438 77.3125 155.488281 77.757812 C 155.664062 78.167969 155.757812 78.605469 155.863281 79.042969 C 155.996094 79.59375 156.136719 80.132812 156.339844 80.664062 C 156.496094 81.089844 156.597656 81.488281 156.675781 81.933594 L 156.710938 82.117188 C 156.777344 82.515625 156.835938 82.914062 156.890625 83.3125 L 157.078125 83.035156 L 157.171875 83.125 C 157.175781 83.3125 157.175781 83.5 157.171875 83.6875 C 156.429688 83.78125 155.695312 83.796875 154.945312 83.792969 L 154.574219 83.792969 C 154.320312 83.796875 154.0625 83.792969 153.804688 83.792969 C 153.480469 83.792969 153.152344 83.792969 152.828125 83.792969 C 152.511719 83.796875 152.195312 83.792969 151.878906 83.792969 L 151.53125 83.796875 C 150.726562 83.792969 149.925781 83.75 149.121094 83.6875 L 149.101562 83.511719 C 149.070312 83.273438 149.039062 83.035156 149.003906 82.800781 L 148.976562 82.546875 C 148.902344 82.019531 148.800781 81.5 148.46875 81.066406 C 147.582031 80.707031 146.382812 80.816406 145.441406 80.9375 C 145.207031 80.984375 145.207031 80.984375 145.003906 81.066406 C 144.742188 81.308594 144.742188 81.308594 144.628906 81.628906 C 144.539062 82.074219 144.507812 82.519531 144.484375 82.976562 L 144.472656 83.183594 C 144.460938 83.351562 144.453125 83.519531 144.441406 83.6875 C 143.316406 83.800781 142.191406 83.796875 141.0625 83.792969 C 140.742188 83.792969 140.421875 83.792969 140.101562 83.796875 C 138.832031 83.796875 137.566406 83.761719 136.296875 83.6875 L 136.429688 83.144531 C 136.460938 83.007812 136.496094 82.867188 136.527344 82.726562 C 136.605469 82.410156 136.675781 82.183594 136.859375 81.910156 C 136.898438 81.695312 136.898438 81.695312 136.914062 81.457031 L 136.933594 81.191406 L 136.972656 80.636719 L 136.996094 80.375 L 137.011719 80.128906 L 137.046875 79.945312 L 137.234375 79.851562 L 137.234375 80.132812 L 137.421875 80.039062 C 137.601562 79.433594 137.640625 78.839844 137.652344 78.210938 C 137.660156 78.039062 137.679688 77.867188 137.703125 77.699219 C 137.847656 77.511719 137.847656 77.511719 137.984375 77.417969 L 137.984375 77.789062 L 138.171875 77.699219 C 138.242188 77.449219 138.242188 77.449219 138.296875 77.144531 L 138.363281 76.796875 L 138.398438 76.609375 C 138.574219 75.691406 138.761719 74.796875 139.082031 73.917969 C 139.230469 73.492188 139.351562 73.0625 139.476562 72.628906 L 139.546875 72.378906 C 139.59375 72.210938 139.640625 72.039062 139.691406 71.871094 C 139.808594 71.445312 139.929688 71.023438 140.046875 70.601562 L 140.117188 70.351562 C 140.257812 69.859375 140.40625 69.371094 140.5625 68.886719 C 140.730469 68.359375 140.878906 67.824219 141.019531 67.289062 C 141.191406 66.625 141.367188 65.960938 141.550781 65.300781 L 141.621094 65.046875 C 141.710938 64.730469 141.792969 64.453125 141.960938 64.167969 C 142.101562 64.03125 142.101562 64.03125 142.382812 63.9375 C 143.734375 63.738281 145.140625 63.796875 146.503906 63.785156 M 146.316406 72.363281 C 146.148438 73.222656 146.007812 74.082031 145.921875 74.953125 L 145.898438 75.191406 C 145.859375 75.589844 145.839844 75.984375 145.847656 76.386719 C 146.375 76.480469 146.902344 76.515625 147.4375 76.480469 L 147.53125 76.386719 C 147.578125 75.636719 147.535156 74.886719 147.457031 74.140625 L 147.433594 73.945312 C 147.378906 73.492188 147.265625 73.140625 147.0625 72.734375 C 146.84375 72.503906 146.84375 72.503906 146.59375 72.363281 Z M 146.316406 72.363281 "/><path style=" stroke:none;fill-rule:nonzero;fill:#fefefe;fill-opacity:1;" d="M 66.839844 88.460938 C 66.96875 88.453125 67.097656 88.449219 67.226562 88.449219 L 68.023438 88.449219 C 68.21875 88.449219 68.414062 88.449219 68.609375 88.449219 C 68.90625 88.449219 69.203125 88.449219 69.5 88.449219 C 69.691406 88.449219 69.878906 88.449219 70.070312 88.449219 L 70.335938 88.449219 C 70.804688 88.453125 71.246094 88.476562 71.707031 88.554688 L 71.753906 88.777344 C 71.824219 89.113281 71.898438 89.445312 71.96875 89.777344 L 72.042969 90.128906 C 72.1875 90.785156 72.1875 90.785156 72.414062 91.417969 C 72.664062 92.011719 72.730469 92.65625 72.839844 93.289062 C 72.964844 94.050781 72.964844 94.050781 73.296875 94.734375 C 73.535156 94.953125 73.535156 94.953125 73.765625 95.109375 C 73.824219 94.8125 73.882812 94.511719 73.941406 94.214844 L 73.992188 93.945312 C 74.117188 93.304688 74.207031 92.660156 74.261719 92.015625 L 74.328125 91.738281 L 74.503906 91.578125 C 74.726562 91.339844 74.757812 91.214844 74.828125 90.902344 C 74.863281 90.722656 74.902344 90.539062 74.9375 90.359375 C 74.972656 90.175781 75.007812 89.996094 75.042969 89.816406 L 75.089844 89.574219 C 75.167969 89.304688 75.167969 89.304688 75.542969 88.554688 L 80.039062 88.460938 L 80.320312 90.429688 C 80.457031 90.980469 80.457031 90.980469 80.601562 91.53125 C 80.800781 92.339844 80.878906 93.175781 80.984375 93.996094 C 81.019531 94.269531 81.054688 94.539062 81.09375 94.8125 C 81.113281 94.976562 81.136719 95.144531 81.15625 95.3125 C 81.214844 95.734375 81.289062 96.113281 81.441406 96.511719 L 81.535156 96.511719 C 81.542969 96.589844 81.550781 96.667969 81.558594 96.746094 C 81.761719 98.832031 81.761719 98.832031 82.003906 100.914062 L 82.285156 100.914062 L 82.378906 101.847656 C 80.910156 101.910156 79.445312 101.957031 77.976562 101.941406 C 77.871094 101.730469 77.867188 101.601562 77.863281 101.367188 L 77.851562 101.132812 C 77.847656 100.972656 77.839844 100.8125 77.835938 100.648438 C 77.824219 100.3125 77.808594 100.03125 77.695312 99.710938 C 77.515625 99.140625 77.566406 98.515625 77.558594 97.921875 L 77.550781 97.613281 L 77.546875 97.332031 C 77.503906 97.03125 77.394531 96.859375 77.230469 96.605469 C 77.15625 96.417969 77.15625 96.417969 77.097656 96.234375 L 77.039062 96.035156 L 76.976562 95.828125 L 76.914062 95.617188 C 76.863281 95.449219 76.8125 95.277344 76.761719 95.109375 L 76.714844 95.339844 C 76.410156 96.78125 76.089844 98.214844 75.714844 99.636719 L 75.625 99.984375 C 75.269531 101.296875 75.269531 101.296875 74.984375 101.847656 C 74.761719 101.960938 74.625 101.953125 74.375 101.957031 L 74.121094 101.957031 L 73.855469 101.953125 L 73.59375 101.957031 C 73.050781 101.953125 72.527344 101.917969 71.988281 101.847656 L 71.914062 101.566406 L 71.816406 101.1875 L 71.769531 101 C 71.691406 100.695312 71.601562 100.421875 71.472656 100.132812 C 71.292969 99.699219 71.210938 99.269531 71.128906 98.8125 L 71.078125 98.550781 C 71.035156 98.339844 70.996094 98.128906 70.957031 97.917969 L 70.769531 97.917969 L 70.722656 97.765625 C 70.652344 97.535156 70.578125 97.304688 70.507812 97.074219 L 70.433594 96.835938 C 70.28125 96.347656 70.113281 95.867188 69.925781 95.390625 C 69.707031 96.507812 69.589844 97.628906 69.488281 98.761719 C 69.398438 99.800781 69.269531 100.824219 69.085938 101.847656 C 68.695312 101.941406 68.332031 101.953125 67.933594 101.957031 L 67.734375 101.957031 C 67.59375 101.957031 67.457031 101.957031 67.320312 101.953125 C 67.109375 101.953125 66.902344 101.953125 66.695312 101.957031 C 65.957031 101.957031 65.230469 101.9375 64.5 101.847656 L 64.621094 101.5 C 64.949219 100.503906 65.117188 99.523438 65.222656 98.484375 C 65.289062 97.871094 65.394531 97.28125 65.519531 96.679688 C 65.753906 95.5625 65.863281 94.441406 65.972656 93.308594 C 65.992188 93.097656 66.015625 92.890625 66.035156 92.683594 C 66.085938 92.179688 66.136719 91.679688 66.183594 91.175781 L 66.277344 91.175781 L 66.277344 92.207031 L 66.464844 92.207031 L 66.488281 91.875 C 66.519531 91.464844 66.546875 91.058594 66.578125 90.652344 C 66.59375 90.476562 66.605469 90.300781 66.617188 90.125 C 66.636719 89.871094 66.65625 89.617188 66.675781 89.363281 L 66.691406 89.125 C 66.707031 88.933594 66.726562 88.746094 66.746094 88.554688 Z M 30.144531 80.878906 C 31.222656 81.371094 32.085938 82.421875 32.910156 83.253906 C 33.117188 83.460938 33.324219 83.667969 33.53125 83.875 C 33.664062 84.011719 33.796875 84.144531 33.933594 84.28125 L 34.117188 84.464844 C 34.46875 84.820312 34.804688 85.1875 35.132812 85.570312 C 35.371094 85.839844 35.625 86.097656 35.882812 86.351562 L 36.042969 86.511719 C 36.15625 86.625 36.269531 86.738281 36.378906 86.847656 C 36.550781 87.015625 36.71875 87.1875 36.886719 87.355469 C 37.632812 88.101562 37.632812 88.101562 38.421875 88.796875 C 38.59375 88.953125 38.726562 89.105469 38.847656 89.304688 C 38.847656 89.488281 38.847656 89.488281 38.796875 89.675781 L 38.746094 89.890625 L 38.683594 90.113281 C 38.433594 91.082031 38.367188 92.019531 38.351562 93.015625 L 38.34375 93.332031 C 38.339844 93.667969 38.332031 94.003906 38.328125 94.34375 L 38.320312 94.691406 C 38.285156 96.921875 38.277344 99.152344 38.285156 101.382812 C 36.945312 100.863281 35.898438 99.648438 34.988281 98.570312 C 34.730469 98.28125 34.449219 98.011719 34.171875 97.738281 C 33.921875 97.488281 33.6875 97.238281 33.460938 96.96875 C 33.230469 96.703125 32.988281 96.46875 32.722656 96.238281 C 32.199219 95.777344 31.726562 95.269531 31.25 94.757812 C 30.863281 94.339844 30.46875 93.929688 30.058594 93.53125 C 29.894531 93.363281 29.742188 93.1875 29.585938 93.007812 C 29.085938 92.429688 28.535156 91.902344 27.988281 91.363281 C 26.761719 90.152344 26.761719 90.152344 26.261719 89.566406 C 26.003906 89.269531 25.71875 88.996094 25.4375 88.71875 C 24.695312 87.992188 24.695312 87.992188 24.527344 87.714844 C 24.449219 87.417969 24.464844 87.167969 24.527344 86.871094 C 24.898438 86.261719 25.433594 85.742188 25.925781 85.226562 L 26.113281 85.027344 C 26.421875 84.699219 26.738281 84.378906 27.058594 84.058594 C 27.296875 83.828125 27.519531 83.585938 27.734375 83.335938 C 28.179688 82.816406 28.671875 82.34375 29.152344 81.863281 L 29.441406 81.574219 C 29.675781 81.34375 29.910156 81.113281 30.144531 80.878906 M 110.742188 88.554688 L 114.183594 88.539062 L 115.261719 88.53125 C 115.703125 88.53125 115.703125 88.53125 115.910156 88.53125 C 116.050781 88.527344 116.195312 88.527344 116.335938 88.527344 C 117.644531 88.515625 118.730469 88.699219 119.894531 89.308594 C 120.4375 89.640625 120.84375 90.046875 121.175781 90.585938 C 121.476562 91.230469 121.445312 91.882812 121.414062 92.582031 C 121.367188 93.144531 121.296875 93.707031 121.226562 94.265625 L 120.195312 94.546875 C 120.269531 94.917969 120.335938 95.230469 120.476562 95.578125 C 120.699219 95.8125 120.957031 95.964844 121.226562 96.140625 C 121.367188 96.25 121.507812 96.363281 121.640625 96.476562 C 121.703125 96.53125 121.765625 96.582031 121.828125 96.632812 C 121.976562 96.792969 121.976562 96.792969 122.042969 96.96875 C 122.175781 97.980469 122.039062 99.054688 121.976562 100.070312 L 121.507812 100.070312 L 121.429688 100.273438 C 121.320312 100.539062 121.207031 100.769531 121.039062 101.007812 C 120.75 101.207031 120.445312 101.242188 120.101562 101.289062 L 120.195312 101.660156 C 119.136719 101.882812 118.074219 101.886719 116.992188 101.902344 C 116.6875 101.90625 116.382812 101.914062 116.078125 101.917969 C 114.300781 101.949219 112.523438 101.941406 110.742188 101.941406 Z M 115.421875 91.457031 C 115.21875 92.230469 115.121094 92.996094 115.328125 93.773438 L 115.421875 93.984375 C 115.925781 93.890625 116.386719 93.792969 116.828125 93.519531 C 117.050781 93.308594 117.050781 93.308594 117.203125 93.050781 C 117.238281 92.863281 117.269531 92.675781 117.296875 92.488281 C 116.523438 91.933594 116.523438 91.933594 115.703125 91.457031 Z M 115.328125 96.417969 C 115.207031 96.660156 115.214844 96.847656 115.207031 97.117188 L 115.195312 97.421875 L 115.171875 98.0625 C 115.160156 98.328125 115.152344 98.589844 115.140625 98.855469 C 115.898438 98.863281 116.636719 98.863281 117.386719 98.761719 C 117.554688 98.328125 117.613281 97.921875 117.632812 97.460938 L 117.644531 97.265625 C 117.652344 97.109375 117.660156 96.953125 117.667969 96.792969 C 117.128906 96.480469 116.449219 96.4375 115.832031 96.40625 C 115.664062 96.40625 115.496094 96.414062 115.328125 96.417969 M 89.023438 88.460938 L 89.027344 88.78125 C 89.03125 89.773438 89.039062 90.769531 89.046875 91.761719 C 89.050781 92.269531 89.054688 92.78125 89.058594 93.292969 C 89.058594 93.785156 89.0625 94.277344 89.066406 94.769531 C 89.070312 94.957031 89.070312 95.148438 89.070312 95.335938 C 89.070312 95.597656 89.074219 95.863281 89.078125 96.125 L 89.078125 96.359375 C 89.085938 96.851562 89.167969 97.199219 89.398438 97.636719 C 89.648438 97.875 89.820312 97.996094 90.148438 98.105469 C 90.433594 98.136719 90.707031 98.140625 90.988281 98.105469 C 91.3125 97.972656 91.3125 97.972656 91.550781 97.730469 C 91.917969 97.0625 91.941406 96.367188 91.945312 95.625 L 91.945312 95.394531 C 91.949219 95.226562 91.949219 95.0625 91.949219 94.898438 C 91.953125 94.636719 91.957031 94.375 91.957031 94.113281 C 91.964844 93.464844 91.96875 92.816406 91.976562 92.167969 C 91.980469 91.621094 91.984375 91.070312 91.992188 90.523438 C 91.992188 90.265625 91.996094 90.007812 91.996094 89.75 L 92.003906 89.277344 L 92.003906 89.058594 C 92.003906 88.890625 92.011719 88.722656 92.019531 88.554688 L 92.113281 88.460938 C 92.25 88.457031 92.390625 88.457031 92.527344 88.460938 L 92.796875 88.464844 L 93.085938 88.472656 L 93.378906 88.480469 C 93.695312 88.488281 94.007812 88.496094 94.320312 88.503906 L 94.953125 88.519531 C 95.472656 88.53125 95.992188 88.542969 96.511719 88.554688 C 96.519531 89.785156 96.519531 91.015625 96.523438 92.246094 C 96.523438 92.820312 96.523438 93.390625 96.527344 93.960938 C 96.53125 94.511719 96.53125 95.066406 96.53125 95.617188 C 96.53125 95.828125 96.53125 96.039062 96.53125 96.246094 C 96.535156 96.542969 96.535156 96.835938 96.535156 97.132812 L 96.535156 97.394531 C 96.535156 98.234375 96.386719 98.960938 95.96875 99.691406 C 95.714844 100.046875 95.429688 100.355469 95.121094 100.667969 L 94.957031 100.832031 C 94.492188 101.285156 93.996094 101.648438 93.382812 101.871094 C 92.488281 102.0625 91.570312 102.078125 90.660156 102.109375 C 90.5 102.113281 90.335938 102.121094 90.175781 102.128906 C 89.074219 102.183594 88.167969 102.128906 87.152344 101.660156 C 86.761719 101.4375 86.386719 101.1875 86.027344 100.914062 C 85.957031 100.859375 85.882812 100.800781 85.808594 100.746094 C 85.371094 100.386719 85.039062 100.03125 84.8125 99.507812 C 84.417969 98.214844 84.394531 96.972656 84.421875 95.632812 C 84.425781 95.425781 84.425781 95.222656 84.429688 95.015625 C 84.4375 94.480469 84.445312 93.945312 84.457031 93.410156 C 84.464844 92.863281 84.472656 92.316406 84.480469 91.769531 C 84.496094 90.699219 84.511719 89.625 84.53125 88.554688 C 84.992188 88.542969 85.449219 88.53125 85.910156 88.515625 L 86.375 88.503906 C 87.257812 88.476562 88.140625 88.453125 89.023438 88.460938 M 152.140625 88.492188 L 152.359375 88.488281 C 153.8125 88.480469 155 88.800781 156.332031 89.398438 C 156.390625 90.289062 156.390625 90.289062 156.253906 90.613281 C 156.15625 90.769531 156.054688 90.925781 155.957031 91.082031 C 155.867188 91.359375 155.804688 91.636719 155.746094 91.921875 L 155.695312 92.140625 C 155.65625 92.320312 155.621094 92.496094 155.582031 92.675781 C 155.371094 92.746094 155.238281 92.773438 155.019531 92.730469 L 154.820312 92.660156 L 154.597656 92.582031 L 154.371094 92.5 C 153.683594 92.257812 153.050781 92.035156 152.304688 92.113281 C 151.988281 92.191406 151.679688 92.289062 151.371094 92.394531 C 151.539062 92.726562 151.734375 92.980469 152.023438 93.214844 C 152.414062 93.453125 152.863281 93.539062 153.300781 93.652344 C 154.113281 93.875 154.863281 94.097656 155.582031 94.546875 L 155.753906 94.652344 C 156.203125 94.980469 156.480469 95.453125 156.707031 95.953125 C 156.917969 96.550781 157.125 97.226562 157.089844 97.863281 C 156.941406 98.640625 156.679688 99.625 156.183594 100.25 C 156.046875 100.386719 156.046875 100.386719 155.863281 100.539062 L 155.582031 100.769531 C 154.621094 101.550781 153.816406 101.925781 152.585938 102.128906 C 152.136719 102.167969 151.691406 102.171875 151.242188 102.164062 L 150.882812 102.164062 C 149.128906 102.132812 147.707031 101.65625 146.128906 100.914062 C 146.15625 100.695312 146.15625 100.695312 146.222656 100.445312 L 146.355469 100.3125 C 146.527344 100.136719 146.582031 99.992188 146.660156 99.761719 L 146.742188 99.519531 L 146.824219 99.269531 C 146.882812 99.097656 146.9375 98.929688 146.996094 98.761719 L 147.078125 98.515625 C 147.214844 98.121094 147.371094 97.738281 147.53125 97.355469 C 147.753906 97.390625 147.753906 97.390625 148 97.449219 L 148.167969 97.671875 C 148.363281 97.945312 148.363281 97.945312 148.707031 98.058594 C 149.125 98.203125 149.542969 98.332031 149.964844 98.457031 L 150.179688 98.523438 C 150.679688 98.664062 151.046875 98.683594 151.558594 98.574219 C 151.847656 98.382812 151.847656 98.382812 152.023438 98.105469 C 152.0625 97.804688 152.0625 97.804688 152.023438 97.542969 C 151.488281 97.253906 150.984375 97.066406 150.390625 96.921875 L 150.167969 96.863281 C 149.871094 96.789062 149.574219 96.714844 149.273438 96.65625 C 148.59375 96.527344 148.148438 96.214844 147.625 95.765625 C 147.453125 95.585938 147.308594 95.402344 147.15625 95.203125 L 146.875 95.015625 C 146.722656 94.5 146.765625 93.945312 146.765625 93.414062 L 146.761719 93.105469 C 146.761719 92.324219 146.769531 91.550781 147.144531 90.851562 C 147.960938 89.824219 148.863281 89.253906 150.058594 88.742188 C 150.734375 88.480469 151.425781 88.5 152.140625 88.492188 M 144.347656 88.554688 L 144.347656 92.207031 L 140.230469 92.207031 L 140.042969 93.609375 L 140.742188 93.609375 C 140.96875 93.605469 141.191406 93.605469 141.417969 93.605469 C 141.574219 93.605469 141.726562 93.605469 141.882812 93.605469 C 142.109375 93.601562 142.332031 93.601562 142.554688 93.601562 L 142.765625 93.601562 C 143.128906 93.601562 143.429688 93.632812 143.785156 93.703125 L 143.785156 96.980469 C 141.960938 96.996094 141.960938 96.996094 141.273438 96.910156 C 140.925781 96.871094 140.578125 96.882812 140.230469 96.886719 L 140.042969 98.292969 L 144.347656 98.292969 L 144.441406 101.847656 C 142.628906 101.929688 140.824219 101.957031 139.007812 101.953125 C 138.644531 101.953125 138.28125 101.953125 137.914062 101.957031 C 137.632812 101.957031 137.347656 101.957031 137.066406 101.957031 C 136.929688 101.957031 136.796875 101.957031 136.660156 101.957031 C 136.476562 101.957031 136.289062 101.957031 136.105469 101.953125 L 135.785156 101.953125 L 135.550781 101.941406 L 135.457031 101.847656 C 135.445312 101.597656 135.441406 101.34375 135.441406 101.09375 L 135.441406 100.84375 C 135.441406 100.558594 135.441406 100.277344 135.445312 99.996094 L 135.445312 99.695312 C 135.445312 97.550781 135.46875 95.40625 135.492188 93.257812 L 135.503906 92.457031 C 135.507812 92.027344 135.511719 91.601562 135.515625 91.175781 C 135.519531 91.015625 135.519531 90.855469 135.523438 90.699219 C 135.523438 90.476562 135.527344 90.257812 135.53125 90.039062 L 135.53125 89.84375 C 135.539062 89.410156 135.582031 88.988281 135.644531 88.554688 C 138.542969 88.402344 141.445312 88.402344 144.347656 88.554688 M 104.886719 88.457031 C 105.234375 88.457031 105.578125 88.457031 105.921875 88.457031 C 106.59375 88.460938 107.261719 88.460938 107.933594 88.460938 C 107.949219 88.683594 107.964844 88.902344 107.980469 89.125 L 108.007812 89.496094 C 108.039062 90.039062 108.039062 90.582031 108.035156 91.125 L 108.027344 92.207031 L 104.003906 92.207031 L 104.097656 93.609375 L 107.652344 93.609375 C 107.757812 94.769531 107.757812 94.769531 107.753906 95.253906 L 107.753906 95.875 L 107.746094 96.980469 L 104.003906 96.792969 L 104.003906 97.917969 L 103.910156 98.292969 L 108.214844 98.199219 C 108.328125 98.53125 108.332031 98.847656 108.34375 99.195312 L 108.351562 99.40625 C 108.355469 99.554688 108.359375 99.703125 108.367188 99.851562 C 108.371094 100.074219 108.382812 100.300781 108.390625 100.527344 C 108.394531 100.671875 108.398438 100.8125 108.402344 100.957031 L 108.410156 101.164062 C 108.414062 101.328125 108.410156 101.496094 108.402344 101.660156 L 108.214844 101.847656 C 107.964844 101.878906 107.726562 101.898438 107.472656 101.90625 L 107.230469 101.917969 C 105.976562 101.964844 104.722656 101.957031 103.46875 101.953125 C 103.09375 101.953125 102.722656 101.953125 102.351562 101.957031 C 102.0625 101.957031 101.773438 101.957031 101.484375 101.957031 C 101.347656 101.957031 101.210938 101.957031 101.070312 101.957031 C 100.882812 101.957031 100.691406 101.957031 100.5 101.953125 L 100.171875 101.953125 C 99.910156 101.945312 99.671875 101.910156 99.414062 101.847656 C 99.410156 98.90625 99.425781 95.964844 99.457031 93.023438 C 99.464844 92.515625 99.46875 92.011719 99.476562 91.503906 C 99.488281 90.519531 99.496094 89.539062 99.507812 88.554688 C 101.304688 88.46875 103.089844 88.449219 104.886719 88.457031 M 124.410156 88.554688 L 128.996094 88.554688 C 129.003906 91.710938 128.976562 94.859375 128.902344 98.011719 C 129.472656 98.003906 130.042969 97.992188 130.613281 97.980469 C 130.804688 97.976562 131 97.972656 131.195312 97.972656 C 131.472656 97.96875 131.75 97.960938 132.027344 97.957031 L 132.292969 97.953125 L 132.539062 97.949219 L 132.753906 97.945312 L 132.929688 97.917969 L 133.117188 97.730469 C 133.1875 97.992188 133.21875 98.222656 133.21875 98.492188 L 133.21875 99.210938 C 133.21875 99.472656 133.214844 99.738281 133.214844 100 C 133.214844 100.179688 133.214844 100.359375 133.214844 100.535156 C 133.210938 100.972656 133.210938 101.410156 133.207031 101.847656 C 131.382812 101.949219 129.558594 101.953125 127.726562 101.949219 C 127.339844 101.949219 126.953125 101.949219 126.570312 101.949219 C 125.816406 101.945312 125.066406 101.945312 124.316406 101.941406 C 124.3125 100.460938 124.3125 98.976562 124.3125 97.496094 C 124.308594 96.804688 124.308594 96.117188 124.308594 95.429688 C 124.308594 94.828125 124.308594 94.226562 124.308594 93.625 C 124.308594 93.308594 124.304688 92.988281 124.304688 92.671875 C 124.304688 92.316406 124.304688 91.960938 124.304688 91.601562 L 124.304688 91.292969 C 124.304688 90.375 124.359375 89.476562 124.410156 88.554688 "/><path style=" stroke:none;fill-rule:nonzero;fill:#fefefe;fill-opacity:1;" d="M 39.035156 89.398438 L 39.222656 89.492188 L 38.847656 93.425781 L 38.753906 93.425781 C 38.75 93.042969 38.746094 92.664062 38.746094 92.285156 C 38.742188 92.15625 38.742188 92.027344 38.742188 91.898438 C 38.730469 91.085938 38.746094 90.289062 38.941406 89.492188 Z M 82.097656 99.414062 L 82.191406 99.414062 L 82.191406 100.257812 L 82.097656 100.257812 Z M 137.796875 76.855469 L 137.984375 76.855469 L 137.984375 77.324219 L 137.796875 77.230469 Z M 24.152344 87.152344 L 24.339844 87.246094 L 24.339844 87.433594 L 24.152344 87.433594 Z M 24.152344 87.152344 "/></g></svg>