<svg xmlns="http://www.w3.org/2000/svg" xmlns:xlink="http://www.w3.org/1999/xlink" width="1920" zoomAndPan="magnify" viewBox="0 0 1440 525.000007" height="700" preserveAspectRatio="xMidYMid meet" version="1.2"><g id="d193c19468"><path style=" stroke:none;fill-rule:nonzero;fill:#48a936;fill-opacity:1;" d="M 271.554688 46.746094 C 277.347656 50.347656 282.019531 55.539062 286.769531 60.378906 C 288.996094 62.609375 291.304688 64.664062 293.703125 66.703125 C 296.183594 68.921875 298.496094 71.308594 300.832031 73.679688 C 302.898438 75.761719 304.992188 77.761719 307.226562 79.664062 C 310.277344 82.269531 313.074219 85.101562 315.890625 87.953125 C 318.445312 90.53125 321.089844 92.929688 323.847656 95.285156 C 326.5 97.652344 328.953125 100.214844 331.449219 102.742188 C 333.105469 104.375 334.789062 105.914062 336.554688 107.425781 C 339.785156 110.191406 342.734375 113.203125 345.71875 116.226562 C 347.371094 117.859375 349.054688 119.402344 350.820312 120.910156 C 353.320312 123.050781 355.644531 125.3125 357.953125 127.652344 C 360.21875 129.945312 362.484375 132.164062 364.941406 134.246094 C 368.40625 137.210938 371.566406 140.460938 374.769531 143.703125 C 377.535156 146.496094 380.414062 149.164062 383.40625 151.710938 C 385.8125 153.839844 388.03125 156.15625 390.285156 158.445312 C 391.847656 159.988281 393.441406 161.429688 395.109375 162.851562 C 397.78125 165.144531 400.269531 167.585938 402.738281 170.089844 C 405.175781 172.5625 407.628906 174.976562 410.269531 177.230469 C 413.320312 179.832031 416.121094 182.667969 418.9375 185.519531 C 421 187.605469 423.097656 189.605469 425.328125 191.507812 C 428.382812 194.109375 431.179688 196.941406 433.992188 199.796875 C 436.566406 202.390625 439.230469 204.808594 442.007812 207.179688 C 444.429688 209.332031 446.664062 211.660156 448.9375 213.96875 C 450.511719 215.511719 452.136719 217 453.816406 218.429688 C 456.332031 220.582031 458.671875 222.863281 461 225.21875 C 463.277344 227.527344 465.5625 229.757812 468.035156 231.863281 C 471.300781 234.65625 474.289062 237.691406 477.296875 240.757812 C 479.566406 243.054688 481.875 245.1875 484.382812 247.230469 C 486.847656 249.367188 488.570312 251.421875 489.882812 254.429688 C 490.558594 257.0625 490.410156 259.425781 490.128906 262.109375 C 488.800781 266.519531 485.65625 269.742188 482.433594 272.90625 C 482.066406 273.269531 481.695312 273.636719 481.316406 274.011719 C 480.144531 275.167969 478.96875 276.320312 477.792969 277.472656 C 471.882812 283.199219 471.882812 283.199219 466.339844 289.277344 C 461.242188 295.246094 455.441406 300.621094 449.871094 306.140625 C 448.292969 307.707031 446.71875 309.269531 445.144531 310.835938 L 443.710938 312.253906 C 441.328125 314.625 439.050781 317.035156 436.855469 319.578125 C 434.039062 322.839844 431.042969 325.878906 427.980469 328.90625 L 426.285156 330.59375 C 423.917969 332.949219 421.550781 335.296875 419.179688 337.648438 C 417.441406 339.375 415.699219 341.105469 413.960938 342.839844 L 412.367188 344.414062 C 409.855469 346.914062 407.433594 349.449219 405.117188 352.132812 C 402.3125 355.382812 399.328125 358.414062 396.273438 361.429688 L 394.578125 363.117188 C 392.214844 365.46875 389.84375 367.820312 387.476562 370.167969 C 385.734375 371.898438 383.992188 373.628906 382.253906 375.359375 L 380.660156 376.933594 C 377.640625 379.941406 374.796875 383.046875 372.011719 386.273438 C 369.753906 388.824219 367.339844 391.210938 364.914062 393.605469 L 363.324219 395.183594 C 361.113281 397.386719 358.894531 399.585938 356.675781 401.78125 C 355.046875 403.398438 353.417969 405.019531 351.785156 406.640625 L 350.296875 408.113281 C 347.339844 411.058594 344.558594 414.105469 341.828125 417.265625 C 338.8125 420.707031 335.546875 423.914062 332.316406 427.15625 C 331.054688 428.429688 329.796875 429.710938 328.542969 430.996094 C 324.398438 435.183594 320.445312 439.054688 315.152344 441.765625 C 312.582031 442.289062 310.582031 442.375 308.019531 441.765625 C 304.117188 439.964844 301.289062 437.535156 298.535156 434.277344 C 295.15625 430.386719 291.527344 426.761719 287.871094 423.132812 C 286.636719 421.90625 285.402344 420.679688 284.171875 419.449219 C 281.550781 416.839844 278.933594 414.230469 276.3125 411.625 C 273.269531 408.601562 270.230469 405.574219 267.195312 402.542969 C 265.988281 401.34375 264.78125 400.144531 263.574219 398.949219 C 260.519531 395.90625 257.480469 392.878906 254.6875 389.589844 C 250.699219 384.933594 246.273438 380.683594 241.929688 376.363281 C 240.265625 374.710938 238.605469 373.054688 236.949219 371.398438 C 233.425781 367.882812 229.902344 364.371094 226.375 360.859375 C 222.285156 356.785156 218.199219 352.710938 214.113281 348.632812 C 212.488281 347.011719 210.859375 345.390625 209.230469 343.773438 C 204.863281 339.417969 200.53125 335.085938 196.539062 330.378906 C 194.980469 328.570312 193.285156 326.917969 191.5625 325.261719 L 189.496094 323.242188 C 188.085938 321.875 186.671875 320.511719 185.253906 319.152344 C 181.339844 315.320312 178.402344 312.070312 176.4375 306.921875 C 176.332031 304.621094 176.4375 302.746094 177.230469 300.574219 C 179.398438 296.902344 181.960938 294.078125 185.007812 291.15625 C 187.65625 288.597656 190.195312 286.007812 192.597656 283.214844 C 196 279.273438 199.707031 275.664062 203.417969 272.019531 C 206.542969 268.929688 209.496094 265.761719 212.363281 262.433594 C 214.417969 260.085938 216.589844 257.863281 218.796875 255.660156 L 220.140625 254.3125 C 223.714844 250.785156 227.394531 247.316406 231.925781 245.050781 C 234.304688 244.757812 235.945312 244.636719 238.265625 245.050781 C 243.824219 247.851562 248.167969 252.261719 252.476562 256.660156 L 254.496094 258.691406 C 256.308594 260.515625 258.113281 262.34375 259.917969 264.175781 C 261.8125 266.097656 263.71875 268.007812 265.621094 269.921875 C 270.445312 274.78125 275.261719 279.644531 280.078125 284.511719 C 285.289062 289.777344 290.5 295.042969 295.722656 300.296875 C 297.617188 302.199219 299.503906 304.105469 301.386719 306.015625 C 303.484375 308.140625 305.585938 310.261719 307.691406 312.378906 L 309.570312 314.292969 L 311.3125 316.039062 L 312.8125 317.558594 C 314.554688 318.980469 316.210938 319.675781 318.324219 320.40625 L 319.917969 318.636719 L 322.039062 316.289062 L 324.128906 313.976562 C 327.453125 310.378906 330.933594 307.027344 334.570312 303.746094 C 341.375 297.550781 348.039062 291.160156 353.96875 284.109375 C 355.394531 282.535156 356.859375 281.046875 358.375 279.5625 L 359.914062 278.050781 C 360.941406 277.050781 361.972656 276.050781 363.011719 275.0625 C 363.484375 274.597656 363.953125 274.140625 364.441406 273.664062 L 365.742188 272.414062 L 366.675781 271.226562 L 366.675781 268.847656 C 365.023438 267.234375 365.023438 267.234375 362.859375 265.625 C 359.65625 263.09375 356.59375 260.515625 353.59375 257.742188 C 350.804688 255.164062 347.933594 252.6875 344.976562 250.304688 C 341.171875 247.238281 337.605469 243.976562 334.042969 240.636719 C 331.433594 238.203125 328.738281 235.875 325.953125 233.648438 C 321.179688 229.816406 316.773438 225.621094 312.320312 221.425781 C 309 218.296875 305.585938 215.289062 302.105469 212.339844 C 296.246094 207.371094 290.507812 202.324219 284.902344 197.070312 C 282.078125 194.414062 279.199219 191.816406 276.265625 189.28125 C 273.652344 187.003906 271.101562 184.65625 268.542969 182.320312 C 266.761719 180.699219 266.761719 180.699219 264.421875 179.214844 L 263.402344 180.390625 C 260.128906 184.160156 256.785156 187.863281 253.375 191.507812 L 251.84375 193.140625 C 247.558594 197.695312 243.160156 202.132812 238.695312 206.515625 C 236.21875 208.960938 233.832031 211.441406 231.558594 214.082031 C 228.632812 217.476562 225.5 220.632812 222.3125 223.78125 C 221.765625 224.324219 221.21875 224.867188 220.65625 225.429688 C 218.402344 227.667969 216.144531 229.90625 213.882812 232.140625 C 212.25 233.800781 210.710938 235.507812 209.183594 237.265625 C 205.519531 241.367188 201.671875 245.269531 197.792969 249.164062 L 195.976562 250.992188 C 193.179688 253.78125 190.359375 256.496094 187.367188 259.074219 C 184.695312 261.378906 182.320312 263.789062 179.957031 266.417969 L 178.824219 267.667969 C 176.835938 269.878906 174.867188 272.101562 172.921875 274.347656 C 167.210938 280.929688 161.253906 287.277344 155.054688 293.394531 C 153.011719 295.46875 151.128906 297.65625 149.230469 299.859375 C 146.152344 303.355469 142.835938 306.535156 139.285156 309.546875 C 136.246094 312.175781 133.621094 315.054688 130.964844 318.0625 C 122.695312 327.359375 113.972656 336.199219 105.125 344.9375 C 101.410156 348.621094 97.777344 352.324219 94.414062 356.339844 C 92.03125 359.007812 89.289062 361.628906 86.078125 363.238281 C 84.09375 363.484375 84.09375 363.484375 81.667969 363.585938 L 79.289062 363.730469 C 75.1875 362.988281 72.621094 361.113281 69.429688 358.480469 C 65.574219 354.941406 61.9375 351.171875 58.285156 347.425781 C 55.882812 344.972656 53.472656 342.523438 51.0625 340.082031 C 47.804688 336.796875 44.453125 333.679688 40.894531 330.714844 C 35.878906 326.355469 31.046875 321.8125 26.28125 317.183594 L 24.601562 315.59375 C 21.066406 312.113281 19.253906 309.339844 17.910156 304.539062 C 17.425781 302.425781 17.445312 301.011719 17.726562 298.863281 C 19.625 294.476562 23.386719 291.457031 26.859375 288.273438 C 28.820312 286.476562 30.664062 284.570312 32.394531 282.550781 C 35.246094 279.257812 38.179688 276.058594 41.164062 272.890625 L 42.8125 271.136719 C 49.058594 264.539062 55.5 258.136719 61.953125 251.742188 C 64.300781 249.414062 66.644531 247.082031 68.988281 244.75 L 70.566406 243.1875 C 73.613281 240.15625 76.488281 237.023438 79.296875 233.769531 C 80.742188 232.113281 82.257812 230.550781 83.824219 229.011719 L 85.535156 227.316406 L 88.996094 223.914062 C 91.621094 221.316406 94.183594 218.710938 96.578125 215.898438 C 101.007812 210.75 105.960938 206.070312 110.789062 201.300781 C 116.597656 195.613281 116.597656 195.613281 122.066406 189.597656 C 126.847656 183.988281 132.28125 178.941406 137.515625 173.761719 C 144.574219 166.785156 144.574219 166.785156 151.21875 159.414062 C 155.070312 155.085938 159.320312 151.09375 163.441406 147.023438 C 167.75 142.761719 172 138.503906 175.933594 133.886719 C 178.839844 130.585938 182.050781 127.5625 185.1875 124.480469 C 188.28125 121.425781 191.25 118.253906 194.089844 114.960938 C 200.113281 108.015625 206.433594 101.351562 213.363281 95.3125 C 215.96875 92.90625 218.316406 90.289062 220.6875 87.660156 C 225.28125 82.613281 230.144531 77.835938 235 73.046875 C 238.410156 69.667969 241.679688 66.246094 244.804688 62.609375 C 247.410156 59.632812 250.160156 56.808594 252.929688 53.984375 L 254.660156 52.164062 C 259.40625 47.335938 259.40625 47.335938 262.671875 46.347656 C 265.878906 45.851562 268.496094 45.640625 271.554688 46.746094 "/><path style=" stroke:none;fill-rule:nonzero;fill:#153f20;fill-opacity:1;" d="M 871.539062 93.742188 C 883.253906 99.421875 893.375 107.351562 901.710938 117.34375 L 903.363281 119.210938 C 911.773438 128.972656 917.625 139.996094 921.527344 152.242188 L 922.285156 154.625 C 926.703125 170.308594 926.40625 187.082031 922.441406 202.796875 C 922.140625 203.925781 921.835938 205.054688 921.527344 206.183594 L 921.105469 207.742188 C 916.558594 224.082031 907.292969 237.554688 895.34375 249.371094 C 890.980469 253.535156 886.265625 257.003906 881.101562 260.121094 L 879.644531 261.011719 C 862.867188 271.066406 844.160156 275.855469 824.707031 276.21875 C 803.515625 276.332031 782.730469 272.230469 764.101562 261.726562 C 760.539062 259.601562 757.421875 257.257812 754.277344 254.566406 C 753.414062 253.875 752.550781 253.183594 751.6875 252.496094 C 739.5 242.621094 730.890625 230.382812 725.019531 215.839844 C 719.542969 201.460938 718.035156 187.378906 718.609375 172.074219 L 716.230469 172.867188 C 715.167969 174.8125 714.175781 176.796875 713.257812 178.816406 C 710.789062 183.964844 708.199219 188.441406 704.339844 192.699219 L 702.828125 194.460938 C 695.824219 202.097656 686.695312 206.949219 676.933594 210.15625 C 667.214844 212.972656 658.101562 214.253906 648.011719 214.214844 L 645.375 214.207031 C 638.84375 214.175781 632.371094 213.914062 625.871094 213.320312 C 625.003906 218.832031 624.925781 224.289062 624.871094 229.863281 C 624.851562 231.566406 624.832031 233.269531 624.808594 234.972656 C 624.753906 239.195312 624.707031 243.417969 624.660156 247.640625 C 624.621094 251.226562 624.574219 254.8125 624.527344 258.394531 C 624.507812 260.074219 624.488281 261.757812 624.472656 263.4375 L 624.433594 266.503906 L 624.402344 269.214844 L 624.285156 271.226562 L 623.492188 272.019531 C 621.421875 272.097656 619.371094 272.125 617.300781 272.121094 L 615.335938 272.125 C 613.183594 272.128906 611.03125 272.128906 608.878906 272.125 C 607.386719 272.125 605.898438 272.125 604.40625 272.125 C 601.28125 272.128906 598.15625 272.125 595.027344 272.121094 C 591.011719 272.117188 586.992188 272.121094 582.976562 272.125 C 579.898438 272.128906 576.820312 272.128906 573.742188 272.125 C 572.261719 272.125 570.78125 272.125 569.300781 272.125 C 567.234375 272.128906 565.164062 272.125 563.097656 272.121094 L 561.222656 272.125 C 559.785156 272.121094 558.347656 272.074219 556.910156 272.019531 L 556.117188 271.226562 C 555.3125 266.902344 555.207031 262.691406 555.210938 258.300781 L 555.203125 256.101562 C 555.199219 253.675781 555.195312 251.253906 555.195312 248.832031 L 555.183594 243.609375 C 555.175781 238.886719 555.167969 234.164062 555.164062 229.445312 C 555.164062 226.496094 555.160156 223.546875 555.15625 220.601562 C 555.144531 210.851562 555.136719 201.105469 555.132812 191.359375 L 555.132812 188.175781 C 555.128906 179.644531 555.117188 171.113281 555.097656 162.582031 C 555.078125 153.820312 555.070312 145.058594 555.066406 136.296875 C 555.066406 131.378906 555.0625 126.460938 555.046875 121.542969 C 555.035156 116.925781 555.03125 112.304688 555.039062 107.6875 C 555.039062 105.984375 555.039062 104.285156 555.03125 102.585938 C 555.023438 100.277344 555.023438 97.964844 555.03125 95.65625 L 555.011719 93.59375 C 555.027344 91.730469 555.027344 91.730469 555.324219 88.785156 C 558.234375 86.84375 560.644531 86.652344 564.042969 86.40625 C 567.882812 86.210938 571.722656 86.09375 575.566406 85.984375 L 578.976562 85.878906 C 582.617188 85.769531 586.261719 85.667969 589.902344 85.5625 L 591.773438 85.511719 C 650.1875 83.867188 650.1875 83.867188 663.917969 87.199219 L 665.820312 87.636719 C 680.4375 91.03125 692.894531 96.183594 704.039062 106.601562 C 711.007812 114.042969 716 122.890625 718.410156 132.808594 C 719.585938 138.761719 719.824219 144.714844 720.027344 150.769531 C 719.980469 153.667969 719.980469 153.667969 720.988281 155.417969 L 721.949219 152.59375 C 728.058594 135.097656 736.410156 120.179688 750.492188 107.871094 C 765.414062 95.464844 782.148438 88.320312 801.148438 84.84375 C 824.957031 80.835938 849.550781 83.53125 871.539062 93.742188 M 625.078125 134.792969 C 624.457031 139.679688 624.15625 144.589844 624.183594 149.515625 L 624.175781 151.4375 C 624.183594 155.472656 624.441406 159.359375 625.078125 163.347656 L 625.871094 164.140625 C 631.707031 164.632812 637.636719 165.015625 643.058594 162.507812 C 646.558594 160.4375 648.429688 158.132812 650.441406 154.625 C 651.40625 151.730469 651.484375 149.742188 651.234375 146.691406 C 650.097656 143.269531 648.476562 140.476562 645.785156 138.066406 C 642.910156 136.109375 640.417969 134.933594 636.90625 134.667969 C 635.105469 134.636719 633.316406 134.652344 631.515625 134.695312 L 629.632812 134.714844 C 628.113281 134.734375 626.597656 134.761719 625.078125 134.792969 M 806.296875 152.046875 C 801.371094 155.261719 798.425781 158.917969 795.695312 164.09375 C 792.882812 170.117188 791.953125 175.355469 792.078125 182.035156 C 792.632812 188.144531 794.476562 193.789062 797.726562 198.992188 C 801.574219 204.246094 806 207.300781 811.800781 210.164062 C 816.277344 211.972656 820.851562 212.132812 825.617188 211.734375 C 832.390625 210.234375 838.070312 206.828125 843.167969 202.199219 C 845.613281 199.589844 847.144531 196.738281 848.601562 193.492188 L 849.371094 191.894531 C 851.753906 186.097656 851.433594 179.800781 850.980469 173.660156 C 850.058594 168.203125 847.824219 163.855469 844.640625 159.382812 L 843.253906 157.300781 C 839.34375 153.171875 834.171875 150.042969 828.785156 148.277344 C 820.730469 146.625 813.449219 148.042969 806.296875 152.046875 M 718.609375 160.96875 L 717.816406 164.140625 L 719.402344 164.140625 Z M 717.023438 164.933594 L 717.816406 166.519531 Z M 719.402344 164.933594 L 719.402344 169.695312 L 720.195312 169.695312 L 720.195312 164.933594 Z M 719.402344 164.933594 "/><path style=" stroke:none;fill-rule:nonzero;fill:#153e1f;fill-opacity:1;" d="M 1069.355469 92.15625 C 1070.816406 92.867188 1072.269531 93.597656 1073.714844 94.339844 L 1075.136719 95.058594 C 1083.578125 99.359375 1090.542969 104.574219 1097.492188 110.996094 C 1097.039062 114.164062 1096.070312 116.296875 1094.359375 118.984375 L 1092.886719 121.316406 L 1091.300781 123.785156 L 1089.675781 126.351562 C 1088.582031 128.082031 1087.480469 129.8125 1086.382812 131.539062 C 1084.570312 134.378906 1082.769531 137.226562 1080.976562 140.078125 C 1079.828125 141.902344 1078.675781 143.722656 1077.527344 145.542969 C 1074.125 150.9375 1070.742188 156.34375 1067.375 161.761719 C 1064.441406 160.722656 1061.910156 159.3125 1059.277344 157.65625 C 1049.96875 151.804688 1041.148438 148.824219 1030.117188 148.277344 C 1023.953125 148.578125 1018.6875 150.582031 1013.472656 153.828125 C 1009.355469 156.578125 1006.796875 159.574219 1004.457031 163.945312 C 1001.59375 170.226562 1000.574219 175.894531 1000.890625 182.78125 C 1001.523438 188.746094 1002.804688 193.8125 1006.214844 198.800781 C 1010.480469 203.984375 1015.191406 206.917969 1021.398438 209.355469 C 1026.0625 211.070312 1030.75 211.402344 1035.667969 210.941406 C 1042.960938 209.636719 1049.203125 207.089844 1055.667969 203.570312 L 1057.496094 202.578125 C 1058.71875 201.914062 1059.9375 201.238281 1061.152344 200.558594 C 1061.714844 200.25 1062.277344 199.941406 1062.859375 199.621094 L 1064.394531 198.765625 C 1064.855469 198.59375 1065.3125 198.425781 1065.789062 198.25 L 1068.167969 199.042969 C 1069.425781 200.851562 1070.613281 202.699219 1071.734375 204.597656 C 1072.4375 205.757812 1073.144531 206.914062 1073.855469 208.074219 L 1074.964844 209.902344 C 1076.792969 212.875 1078.699219 215.800781 1080.601562 218.722656 L 1082.78125 222.089844 C 1083.761719 223.605469 1084.746094 225.121094 1085.734375 226.632812 C 1086.535156 227.863281 1087.335938 229.09375 1088.132812 230.324219 L 1089.453125 232.355469 C 1090.359375 233.945312 1090.359375 233.945312 1090.359375 235.53125 C 1093.550781 232.574219 1095.761719 229.535156 1097.988281 225.8125 C 1098.671875 224.695312 1099.359375 223.574219 1100.046875 222.457031 L 1101.125 220.695312 C 1103.070312 217.546875 1105.089844 214.445312 1107.105469 211.339844 L 1108.269531 209.539062 L 1110.96875 205.390625 L 1113.007812 206.582031 C 1126.308594 214.316406 1139.234375 221.140625 1155.011719 221.5 C 1158.46875 221.488281 1158.46875 221.488281 1161.777344 220.628906 C 1163.894531 219.261719 1165.054688 217.800781 1166.453125 215.699219 C 1166.503906 213.710938 1166.503906 213.710938 1165.660156 211.734375 C 1163.058594 209.375 1160.542969 207.894531 1157.304688 206.566406 L 1154.746094 205.503906 L 1152.039062 204.398438 L 1146.449219 202.066406 L 1143.683594 200.914062 C 1128.960938 194.792969 1115.796875 188.300781 1105.617188 175.496094 C 1101.023438 169.105469 1097.359375 161.625 1096.105469 153.789062 C 1095.339844 144.632812 1095.210938 135.621094 1098.285156 126.859375 L 1099.105469 124.476562 C 1102.972656 114.246094 1109.808594 106.34375 1118.171875 99.46875 C 1129.476562 90.703125 1143.410156 85.859375 1157.488281 83.828125 C 1176.84375 81.589844 1195.667969 84.300781 1213.625 91.84375 C 1220.953125 95.0625 1227.5 98.953125 1233.828125 103.859375 L 1236.253906 105.730469 C 1240.441406 109.191406 1240.441406 109.191406 1241.753906 110.996094 C 1241.492188 114.519531 1240.554688 116.804688 1238.589844 119.710938 L 1237.109375 121.9375 L 1235.511719 124.28125 C 1234.425781 125.910156 1233.34375 127.539062 1232.261719 129.167969 L 1230.625 131.625 C 1228.007812 135.625 1225.554688 139.726562 1223.128906 143.847656 C 1221.398438 146.75 1219.734375 149.179688 1217.183594 151.449219 C 1214.84375 150.324219 1212.652344 149.050781 1210.445312 147.683594 C 1201.640625 142.40625 1193.480469 138.652344 1183.148438 137.667969 C 1179.695312 138.089844 1177.296875 139.414062 1174.480469 141.386719 C 1173.445312 142.785156 1173.445312 142.785156 1172.992188 144.957031 L 1173.589844 147.484375 C 1178.203125 151.570312 1183.984375 153.785156 1189.640625 156.011719 C 1221.226562 168.878906 1221.226562 168.878906 1232.195312 181.789062 C 1239.007812 190.882812 1242.738281 200.398438 1244.132812 211.734375 C 1244.914062 220.617188 1243.207031 229.394531 1239.769531 237.585938 C 1234.171875 248.539062 1225.875 257.425781 1215.648438 264.1875 C 1202.75 271.8125 1187.507812 275.796875 1172.574219 276.117188 C 1150.757812 276.296875 1128.058594 273.40625 1108.410156 263.167969 C 1103.332031 260.253906 1098.777344 256.769531 1094.324219 252.980469 C 1091.269531 254.058594 1089.039062 255.453125 1086.496094 257.445312 C 1071.929688 268.203125 1054.535156 273.769531 1036.648438 275.839844 C 1016.910156 277.441406 998.308594 274.75 980.171875 266.800781 C 970.753906 262.3125 963.226562 256.878906 955.609375 249.808594 L 954.316406 248.632812 C 943.097656 238.367188 935.914062 225.410156 930.761719 211.15625 C 929.945312 208.457031 929.273438 205.765625 928.660156 203.007812 L 927.949219 200.023438 C 924.246094 183.183594 925.507812 165.476562 930.648438 149.097656 C 935.722656 133.964844 944.078125 120.195312 955.605469 109.09375 C 970.144531 96.507812 985.910156 88.484375 1004.792969 84.792969 C 1026.429688 80.960938 1049.136719 83.484375 1069.355469 92.15625 "/><path style=" stroke:none;fill-rule:nonzero;fill:#153f20;fill-opacity:1;" d="M 264.421875 46.746094 C 264.554688 63.90625 264.648438 81.070312 264.710938 98.230469 C 264.738281 106.199219 264.777344 114.167969 264.839844 122.136719 C 264.898438 129.085938 264.929688 136.03125 264.945312 142.976562 C 264.953125 146.65625 264.96875 150.332031 265.007812 154.007812 C 265.046875 157.472656 265.058594 160.9375 265.050781 164.402344 C 265.050781 165.667969 265.0625 166.9375 265.082031 168.207031 C 265.144531 171.929688 265.105469 175.535156 264.421875 179.210938 C 262.929688 181.859375 261.179688 183.621094 258.875 185.558594 C 257.960938 186.53125 257.0625 187.515625 256.175781 188.507812 C 255.246094 189.511719 254.308594 190.507812 253.375 191.507812 L 251.84375 193.140625 C 247.558594 197.695312 243.160156 202.132812 238.695312 206.515625 C 236.21875 208.960938 233.832031 211.441406 231.558594 214.082031 C 228.632812 217.476562 225.5 220.632812 222.3125 223.78125 C 221.765625 224.324219 221.21875 224.867188 220.65625 225.429688 C 218.402344 227.667969 216.144531 229.90625 213.882812 232.140625 C 212.25 233.800781 210.710938 235.507812 209.183594 237.265625 C 205.519531 241.367188 201.671875 245.269531 197.792969 249.164062 L 195.976562 250.992188 C 193.179688 253.78125 190.359375 256.496094 187.367188 259.074219 C 184.695312 261.378906 182.320312 263.789062 179.957031 266.417969 L 178.824219 267.667969 C 176.835938 269.875 174.867188 272.101562 172.921875 274.347656 C 167.210938 280.929688 161.253906 287.277344 155.054688 293.394531 C 153.011719 295.46875 151.128906 297.65625 149.230469 299.859375 C 146.152344 303.355469 142.835938 306.535156 139.285156 309.546875 C 136.246094 312.175781 133.621094 315.054688 130.964844 318.0625 C 122.695312 327.359375 113.972656 336.199219 105.125 344.9375 C 101.410156 348.621094 97.777344 352.324219 94.414062 356.339844 C 92.03125 359.007812 89.289062 361.628906 86.078125 363.238281 C 84.09375 363.484375 84.09375 363.484375 81.667969 363.585938 L 79.289062 363.730469 C 75.1875 362.988281 72.621094 361.113281 69.429688 358.480469 C 65.574219 354.941406 61.9375 351.171875 58.285156 347.425781 C 55.882812 344.972656 53.472656 342.523438 51.0625 340.082031 C 47.804688 336.796875 44.453125 333.679688 40.894531 330.714844 C 35.878906 326.355469 31.046875 321.8125 26.28125 317.183594 L 24.601562 315.59375 C 21.066406 312.113281 19.253906 309.339844 17.910156 304.539062 C 17.425781 302.425781 17.445312 301.011719 17.726562 298.863281 C 19.625 294.476562 23.386719 291.457031 26.859375 288.273438 C 28.820312 286.476562 30.664062 284.570312 32.394531 282.550781 C 35.246094 279.257812 38.179688 276.058594 41.164062 272.890625 L 42.8125 271.136719 C 49.058594 264.539062 55.5 258.136719 61.953125 251.742188 C 64.300781 249.414062 66.644531 247.082031 68.988281 244.75 L 70.566406 243.1875 C 73.613281 240.15625 76.488281 237.023438 79.296875 233.769531 C 80.742188 232.113281 82.257812 230.550781 83.824219 229.011719 L 85.535156 227.316406 L 88.996094 223.914062 C 91.621094 221.316406 94.183594 218.710938 96.578125 215.898438 C 101.007812 210.75 105.960938 206.070312 110.789062 201.300781 C 116.597656 195.613281 116.597656 195.613281 122.066406 189.597656 C 126.847656 183.988281 132.28125 178.941406 137.515625 173.761719 C 144.574219 166.785156 144.574219 166.785156 151.21875 159.414062 C 155.070312 155.085938 159.320312 151.09375 163.441406 147.023438 C 167.75 142.761719 172 138.503906 175.933594 133.886719 C 178.839844 130.585938 182.050781 127.5625 185.1875 124.480469 C 188.28125 121.425781 191.25 118.253906 194.089844 114.960938 C 200.113281 108.015625 206.433594 101.351562 213.363281 95.3125 C 215.96875 92.90625 218.316406 90.289062 220.6875 87.660156 C 225.28125 82.613281 230.144531 77.835938 235 73.046875 C 238.40625 69.671875 241.667969 66.25 244.789062 62.613281 C 247.457031 59.59375 250.324219 56.773438 253.175781 53.933594 L 255.007812 52.09375 L 258.335938 48.765625 C 260.558594 46.714844 261.230469 46.746094 264.421875 46.746094 "/><path style=" stroke:none;fill-rule:nonzero;fill:#143e1f;fill-opacity:1;" d="M 1286.144531 87.992188 L 1376.503906 87.992188 C 1381.976562 105.332031 1381.976562 105.332031 1383.671875 111.113281 L 1384.273438 113.148438 C 1384.90625 115.289062 1385.539062 117.429688 1386.167969 119.574219 L 1387.511719 124.140625 C 1390.789062 135.265625 1394.023438 146.40625 1397.21875 157.558594 C 1398.988281 163.714844 1400.8125 169.855469 1402.6875 175.980469 C 1406.96875 189.976562 1411.050781 204.03125 1415.167969 218.074219 L 1418.527344 229.515625 L 1422.320312 242.433594 L 1422.902344 244.410156 C 1423.273438 245.683594 1423.648438 246.960938 1424.019531 248.234375 C 1424.933594 251.359375 1425.859375 254.476562 1426.8125 257.59375 L 1427.375 259.449219 C 1427.722656 260.601562 1428.078125 261.753906 1428.433594 262.902344 C 1429.289062 265.742188 1429.894531 268.253906 1429.613281 271.226562 L 1428.820312 272.019531 C 1426.503906 272.09375 1424.207031 272.117188 1421.890625 272.109375 L 1419.6875 272.109375 C 1417.273438 272.109375 1414.859375 272.101562 1412.445312 272.097656 L 1407.4375 272.09375 C 1403.035156 272.089844 1398.628906 272.082031 1394.226562 272.074219 C 1389.738281 272.066406 1385.246094 272.0625 1380.757812 272.058594 C 1371.941406 272.050781 1363.128906 272.035156 1354.3125 272.019531 C 1353.824219 270.320312 1353.347656 268.617188 1352.875 266.914062 L 1352.066406 264.039062 C 1350.710938 258.292969 1349.789062 252.449219 1348.761719 246.636719 L 1314.679688 246.636719 L 1308.339844 272.019531 L 1233.828125 272.019531 C 1233.035156 268.847656 1233.035156 268.847656 1233.324219 267.15625 L 1233.882812 265.292969 L 1234.515625 263.132812 L 1235.238281 260.757812 L 1235.992188 258.21875 C 1236.539062 256.367188 1237.089844 254.515625 1237.648438 252.667969 C 1238.554688 249.648438 1239.453125 246.628906 1240.347656 243.605469 C 1241.328125 240.296875 1242.308594 236.992188 1243.292969 233.683594 C 1247.15625 220.699219 1250.957031 207.691406 1254.757812 194.683594 C 1255.976562 190.507812 1257.199219 186.332031 1258.417969 182.15625 C 1264.3125 162 1270.179688 141.839844 1276.019531 121.667969 C 1277.03125 118.175781 1278.042969 114.6875 1279.054688 111.199219 C 1279.835938 108.5 1280.617188 105.800781 1281.398438 103.097656 L 1282.921875 97.839844 L 1283.628906 95.382812 L 1284.28125 93.136719 L 1284.851562 91.164062 C 1285.351562 89.578125 1285.351562 89.578125 1286.144531 87.992188 M 1331.324219 158.589844 C 1330.183594 160.710938 1329.453125 162.609375 1328.988281 164.96875 L 1328.613281 166.855469 L 1328.226562 168.878906 L 1327.8125 170.992188 C 1327.523438 172.464844 1327.238281 173.941406 1326.953125 175.417969 C 1326.523438 177.648438 1326.085938 179.878906 1325.644531 182.109375 C 1323.617188 192.488281 1323.617188 192.488281 1322.605469 203.007812 C 1324.40625 203.910156 1325.414062 203.90625 1327.410156 203.90625 L 1329.324219 203.910156 L 1331.324219 203.902344 L 1333.324219 203.910156 L 1335.238281 203.90625 L 1336.992188 203.90625 C 1338.535156 203.890625 1338.535156 203.890625 1340.042969 203.007812 C 1339.695312 194.863281 1338.148438 186.988281 1336.570312 179.007812 C 1336.125 176.765625 1335.695312 174.519531 1335.265625 172.273438 L 1334.425781 167.980469 L 1334.035156 165.953125 L 1333.660156 164.074219 L 1333.335938 162.425781 C 1332.917969 160.722656 1332.917969 160.722656 1331.324219 158.589844 "/><path style=" stroke:none;fill-rule:nonzero;fill:#336b38;fill-opacity:1;" d="M 265.214844 45.953125 C 267.601562 45.953125 269.289062 46.078125 271.554688 46.746094 C 277.363281 50.292969 282.03125 55.550781 286.769531 60.378906 C 288.996094 62.609375 291.304688 64.664062 293.703125 66.703125 C 296.183594 68.921875 298.496094 71.308594 300.832031 73.679688 C 302.898438 75.761719 304.992188 77.761719 307.226562 79.664062 C 310.277344 82.269531 313.074219 85.101562 315.890625 87.953125 C 318.445312 90.53125 321.089844 92.929688 323.847656 95.285156 C 326.5 97.652344 328.953125 100.214844 331.449219 102.742188 C 333.105469 104.375 334.789062 105.914062 336.554688 107.425781 C 339.785156 110.191406 342.734375 113.203125 345.71875 116.226562 C 347.371094 117.859375 349.054688 119.402344 350.820312 120.910156 C 353.320312 123.050781 355.644531 125.3125 357.953125 127.652344 C 360.21875 129.945312 362.484375 132.164062 364.941406 134.246094 C 368.40625 137.210938 371.566406 140.460938 374.769531 143.703125 C 377.535156 146.496094 380.414062 149.164062 383.40625 151.710938 C 385.8125 153.839844 388.03125 156.15625 390.285156 158.445312 C 391.847656 159.988281 393.441406 161.429688 395.109375 162.851562 C 397.78125 165.144531 400.269531 167.585938 402.738281 170.089844 C 405.175781 172.5625 407.628906 174.976562 410.269531 177.230469 C 413.320312 179.832031 416.121094 182.667969 418.9375 185.519531 C 421 187.605469 423.097656 189.605469 425.328125 191.507812 C 428.382812 194.109375 431.179688 196.941406 433.992188 199.796875 C 436.566406 202.390625 439.230469 204.808594 442.007812 207.179688 C 444.429688 209.332031 446.664062 211.660156 448.9375 213.96875 C 450.511719 215.511719 452.136719 217 453.816406 218.429688 C 456.332031 220.582031 458.671875 222.863281 461 225.21875 C 463.277344 227.527344 465.5625 229.757812 468.035156 231.863281 C 471.300781 234.65625 474.289062 237.691406 477.296875 240.757812 C 479.566406 243.054688 481.875 245.1875 484.382812 247.230469 C 486.941406 249.417969 488.457031 251.640625 489.933594 254.652344 C 490.328125 256.15625 490.328125 256.15625 490 257.929688 L 489.535156 259.328125 C 483.742188 260.703125 478.257812 261.0625 472.339844 260.925781 C 469.347656 260.796875 469.347656 260.796875 466.546875 261.707031 C 464.457031 261.933594 462.378906 262.121094 460.285156 262.277344 L 458.378906 262.429688 C 456.363281 262.585938 454.347656 262.742188 452.328125 262.898438 C 450.34375 263.050781 448.359375 263.207031 446.371094 263.363281 L 442.484375 263.667969 C 439.277344 263.917969 436.078125 264.183594 432.875 264.484375 C 428.984375 264.847656 425.09375 265.152344 421.199219 265.449219 L 419.222656 265.601562 C 416.503906 265.8125 413.785156 266.019531 411.070312 266.226562 C 409.0625 266.378906 407.054688 266.535156 405.050781 266.6875 L 403.199219 266.828125 C 400.210938 267.0625 397.34375 267.445312 394.417969 268.054688 C 393.175781 268.144531 391.9375 268.210938 390.695312 268.246094 L 388.589844 268.324219 C 387.867188 268.347656 387.140625 268.375 386.390625 268.398438 C 381.703125 268.566406 377.328125 268.800781 372.769531 269.988281 C 370.796875 270.394531 370.796875 270.394531 369.050781 270.433594 C 366.46875 269.324219 364.703125 267.621094 362.710938 265.671875 C 361.441406 264.53125 360.167969 263.390625 358.898438 262.253906 L 356.871094 260.398438 C 354.785156 258.535156 352.648438 256.769531 350.476562 255.015625 C 346.640625 251.910156 342.988281 248.648438 339.359375 245.308594 C 335.8125 242.054688 332.175781 238.90625 328.507812 235.789062 C 322.859375 230.980469 317.316406 226.046875 311.886719 220.988281 C 308.273438 217.640625 304.558594 214.417969 300.800781 211.234375 C 295.386719 206.628906 290.089844 201.933594 284.902344 197.070312 C 282.074219 194.414062 279.195312 191.816406 276.265625 189.277344 C 273.074219 186.492188 269.917969 183.667969 266.800781 180.800781 L 265.523438 179.910156 L 264.421875 178.417969 C 264.183594 176.289062 264.070312 174.148438 264.078125 172.003906 L 264.054688 170.007812 C 264.03125 167.804688 264.023438 165.601562 264.015625 163.398438 C 264.003906 161.835938 263.988281 160.277344 263.972656 158.71875 C 263.933594 154.519531 263.910156 150.324219 263.890625 146.125 C 263.875 142.660156 263.847656 139.191406 263.820312 135.726562 C 263.75 126.195312 263.695312 116.664062 263.652344 107.136719 C 263.632812 102.59375 263.605469 98.050781 263.578125 93.511719 C 263.535156 86.621094 263.503906 79.730469 263.488281 72.839844 C 263.480469 71.136719 263.472656 69.4375 263.464844 67.734375 C 263.449219 64.617188 263.445312 61.5 263.449219 58.382812 L 263.429688 55.644531 L 263.4375 53.15625 L 263.433594 51.011719 C 263.644531 48.992188 264.195312 47.695312 265.214844 45.953125 "/><path style=" stroke:none;fill-rule:nonzero;fill:#49a937;fill-opacity:1;" d="M 579.101562 318.023438 L 623.492188 318.023438 C 627.058594 326.949219 627.058594 326.949219 628.074219 330.542969 L 628.773438 332.980469 L 629.488281 335.53125 L 630.257812 338.226562 C 631.0625 341.042969 631.859375 343.863281 632.65625 346.679688 C 633.457031 349.503906 634.257812 352.328125 635.0625 355.152344 C 635.5625 356.898438 636.058594 358.648438 636.550781 360.402344 C 637.824219 364.875 639.226562 369.222656 640.929688 373.550781 L 643.308594 373.550781 L 643.910156 371.503906 L 644.761719 368.597656 L 645.230469 367.003906 C 646.101562 364.042969 646.972656 361.082031 647.851562 358.121094 C 649.5625 352.34375 651.253906 346.5625 652.835938 340.75 C 653.515625 338.265625 654.207031 335.78125 654.902344 333.300781 C 655.230469 332.109375 655.550781 330.917969 655.867188 329.71875 C 656.304688 328.046875 656.769531 326.382812 657.242188 324.71875 L 658.019531 321.839844 L 659.160156 319.613281 C 663.027344 317.5 667.316406 317.808594 671.613281 317.84375 L 673.839844 317.84375 C 675.390625 317.847656 676.941406 317.851562 678.488281 317.863281 C 680.847656 317.875 683.203125 317.878906 685.558594 317.878906 L 690.09375 317.890625 L 692.207031 317.894531 C 696.320312 317.925781 700.269531 318.226562 704.339844 318.820312 C 705.71875 322.566406 706.457031 326.277344 707.050781 330.210938 L 707.371094 332.269531 C 707.609375 333.785156 707.84375 335.296875 708.078125 336.8125 C 710.375 351.707031 712.8125 366.578125 715.300781 381.441406 L 715.707031 383.851562 C 717.058594 391.941406 718.417969 400.027344 719.78125 408.113281 C 720.300781 411.195312 720.816406 414.273438 721.332031 417.355469 C 721.578125 418.800781 721.820312 420.246094 722.066406 421.691406 C 723.285156 428.898438 724.488281 436.050781 724.949219 443.351562 C 719.347656 443.390625 713.75 443.421875 708.148438 443.441406 C 706.242188 443.449219 704.335938 443.457031 702.429688 443.472656 C 699.691406 443.492188 696.957031 443.5 694.21875 443.507812 L 691.628906 443.53125 L 689.226562 443.53125 L 687.109375 443.542969 C 685.316406 443.351562 685.316406 443.351562 682.941406 441.765625 C 682.441406 439.699219 682.441406 439.699219 682.152344 437.027344 L 681.804688 433.96875 L 681.453125 430.613281 C 681.324219 429.460938 681.195312 428.308594 681.066406 427.160156 C 680.78125 424.664062 680.503906 422.164062 680.226562 419.667969 C 679.496094 413.101562 678.699219 406.546875 677.902344 399.988281 C 677.640625 397.808594 677.382812 395.628906 677.125 393.449219 L 676.640625 389.417969 L 676.417969 387.539062 C 676.078125 384.410156 676.078125 384.410156 675.011719 381.484375 C 670.796875 393.773438 667.097656 406.199219 663.425781 418.660156 C 662.65625 421.265625 661.886719 423.871094 661.109375 426.472656 L 660.417969 428.839844 L 659.742188 431.105469 L 659.167969 433.058594 C 657.988281 436.542969 656.5625 439.9375 655.195312 443.351562 L 629.039062 443.351562 C 626.878906 439.03125 625.1875 435.320312 623.902344 430.777344 L 623.386719 429.015625 C 623.027344 427.777344 622.667969 426.539062 622.308594 425.296875 C 621.367188 422.019531 620.40625 418.753906 619.445312 415.480469 L 618.863281 413.488281 C 617.015625 407.164062 615.089844 400.863281 613.136719 394.570312 L 612.25 391.695312 L 611.425781 389.042969 L 610.714844 386.75 C 610.027344 384.695312 609.257812 382.695312 608.429688 380.6875 C 606.3125 393.960938 604.78125 407.273438 603.320312 420.628906 C 603.019531 423.351562 602.714844 426.074219 602.410156 428.792969 L 602.140625 431.289062 C 601.667969 435.472656 601.019531 439.347656 599.710938 443.351562 C 594.082031 443.371094 588.453125 443.386719 582.824219 443.398438 C 580.90625 443.402344 578.988281 443.40625 577.074219 443.414062 C 574.324219 443.421875 571.574219 443.425781 568.828125 443.429688 L 566.210938 443.441406 L 563.808594 443.441406 L 561.679688 443.449219 L 560.078125 443.351562 L 559.285156 442.558594 C 559.382812 434.605469 560.859375 426.71875 562.160156 418.894531 L 562.792969 415.023438 C 563.351562 411.589844 563.917969 408.160156 564.484375 404.726562 C 565.070312 401.164062 565.65625 397.597656 566.238281 394.035156 C 567.058594 389.023438 567.882812 384.007812 568.707031 378.996094 C 569.929688 371.578125 571.140625 364.15625 572.34375 356.734375 L 574.046875 346.234375 L 574.9375 340.726562 C 575.34375 338.207031 575.753906 335.691406 576.164062 333.175781 L 576.515625 331.003906 L 576.847656 328.972656 L 577.125 327.253906 C 577.707031 324.160156 578.421875 321.097656 579.101562 318.027344 "/><path style=" stroke:none;fill-rule:nonzero;fill:#48a936;fill-opacity:1;" d="M 999.773438 317.898438 L 1001.6875 317.886719 C 1003.789062 317.875 1005.886719 317.867188 1007.988281 317.863281 L 1012.378906 317.851562 C 1015.457031 317.84375 1018.535156 317.835938 1021.613281 317.835938 C 1025.53125 317.832031 1029.449219 317.8125 1033.367188 317.789062 C 1036.398438 317.773438 1039.425781 317.769531 1042.457031 317.769531 C 1043.898438 317.765625 1045.339844 317.761719 1046.785156 317.75 C 1056.195312 317.6875 1065.722656 317.703125 1074.480469 321.683594 C 1081.375 325.628906 1086.703125 329.171875 1090.921875 336.015625 C 1094.183594 341.886719 1094.707031 347.285156 1094.65625 353.925781 C 1094.492188 359.046875 1093.726562 363.492188 1091.152344 367.996094 C 1088.332031 372.023438 1085.136719 375.121094 1080.847656 377.515625 L 1079.261719 377.515625 L 1079.261719 379.101562 L 1081.195312 379.546875 C 1086.519531 381.699219 1091.285156 385.660156 1094.835938 390.179688 C 1097.925781 394.835938 1099.820312 399.363281 1100.226562 404.972656 C 1100.46875 411.320312 1100.304688 417.40625 1097.695312 423.296875 C 1094.074219 429.898438 1089.339844 434.175781 1082.980469 438.152344 C 1072.226562 444.070312 1060.46875 443.683594 1048.578125 443.585938 C 1047.125 443.582031 1045.675781 443.578125 1044.222656 443.578125 C 1038.894531 443.566406 1033.566406 443.53125 1028.238281 443.5 L 992.070312 443.351562 L 992.070312 318.820312 C 994.515625 317.59375 997.089844 317.902344 999.773438 317.898438 M 1034.875 348.167969 C 1033.871094 354.066406 1033.667969 359.722656 1034.875 365.617188 C 1038.320312 366.769531 1041.574219 366.71875 1045.179688 366.410156 C 1047.953125 365.710938 1050.097656 364.617188 1052.214844 362.644531 C 1053.453125 360.164062 1053.753906 358.066406 1053.898438 355.304688 C 1053.316406 353.039062 1052.453125 351.554688 1051.175781 349.605469 C 1048.441406 347.671875 1045.898438 347.226562 1042.621094 346.71875 C 1039.640625 346.53125 1037.632812 347.0625 1034.875 348.167969 M 1034.875 393.378906 C 1034.71875 395.941406 1034.574219 398.503906 1034.429688 401.066406 L 1034.292969 403.257812 L 1034.179688 405.386719 L 1034.066406 407.339844 C 1034.082031 409.386719 1034.414062 411.21875 1034.875 413.210938 C 1039.78125 414.644531 1045.246094 414.464844 1050.234375 413.457031 C 1053.1875 412.570312 1053.1875 412.570312 1055.433594 410.484375 C 1057.195312 408.539062 1057.195312 408.539062 1057.863281 406.070312 C 1058.1875 403.640625 1058.234375 401.363281 1057.863281 398.933594 C 1056.585938 396.515625 1054.84375 394.835938 1052.601562 393.261719 C 1049.738281 392.230469 1046.957031 392.390625 1043.941406 392.4375 L 1042.097656 392.441406 C 1039.496094 392.460938 1037.359375 392.550781 1034.875 393.378906 "/><path style=" stroke:none;fill-rule:nonzero;fill:#49a937;fill-opacity:1;" d="M 745.558594 318.023438 C 751.527344 318.003906 757.496094 317.992188 763.464844 317.980469 C 765.496094 317.976562 767.527344 317.972656 769.558594 317.964844 C 772.472656 317.957031 775.386719 317.949219 778.300781 317.949219 L 781.074219 317.9375 L 783.621094 317.9375 L 785.878906 317.929688 L 787.570312 318.023438 L 788.363281 318.820312 C 788.457031 321.023438 788.5 323.214844 788.511719 325.421875 L 788.53125 327.519531 C 788.546875 329.03125 788.558594 330.542969 788.566406 332.050781 C 788.585938 334.445312 788.605469 336.839844 788.628906 339.234375 C 788.675781 344.328125 788.71875 349.421875 788.757812 354.511719 C 788.804688 360.390625 788.855469 366.273438 788.910156 372.152344 C 788.929688 374.503906 788.949219 376.855469 788.964844 379.207031 L 789.003906 383.578125 L 789.015625 385.539062 C 789.066406 393.351562 789.066406 393.351562 791.035156 400.816406 C 792.15625 402.625 793.046875 403.964844 794.703125 405.277344 C 797.207031 406.113281 799.105469 406.230469 801.738281 406.269531 L 804.207031 406.332031 C 806.640625 406.207031 806.640625 406.207031 808.789062 404.988281 C 810.902344 403.4375 811.8125 402.085938 812.933594 399.726562 C 813.972656 395.921875 813.863281 392.085938 813.890625 388.175781 L 813.914062 385.875 C 813.9375 383.371094 813.960938 380.871094 813.976562 378.367188 L 814.027344 373.15625 C 814.070312 368.589844 814.109375 364.019531 814.148438 359.453125 C 814.195312 353.96875 814.25 348.488281 814.300781 343.003906 C 814.375 334.675781 814.445312 326.351562 814.519531 318.023438 L 858.113281 318.023438 C 859.015625 319.832031 859.011719 320.832031 859.023438 322.839844 L 859.042969 324.886719 L 859.046875 327.136719 L 859.0625 329.507812 C 859.078125 332.109375 859.089844 334.710938 859.097656 337.308594 L 859.105469 340.011719 C 859.121094 344.738281 859.132812 349.464844 859.140625 354.191406 C 859.148438 359.042969 859.175781 363.894531 859.207031 368.75 C 859.230469 372.5 859.238281 376.257812 859.238281 380.007812 C 859.242188 381.796875 859.253906 383.582031 859.265625 385.367188 C 859.371094 398.640625 858.96875 411.875 852.363281 423.78125 C 848.101562 430.324219 843.09375 434.894531 836.328125 438.789062 C 822.589844 445.65625 807.425781 446.617188 792.324219 445.734375 C 781.507812 444.761719 771.480469 442.171875 762.355469 436.066406 C 756.300781 431.777344 752.09375 426.675781 748.878906 420.003906 C 743.566406 407.277344 743.84375 394.527344 743.839844 380.972656 L 743.832031 375.972656 C 743.828125 372.5 743.824219 369.023438 743.828125 365.546875 C 743.828125 361.097656 743.816406 356.648438 743.800781 352.199219 C 743.792969 348.765625 743.792969 345.332031 743.792969 341.898438 C 743.792969 340.257812 743.789062 338.617188 743.78125 336.976562 C 743.777344 334.6875 743.777344 332.394531 743.78125 330.105469 C 743.777344 329.429688 743.773438 328.757812 743.765625 328.0625 C 743.789062 324.398438 744.160156 321.472656 745.558594 318.023438 "/><path style=" stroke:none;fill-rule:nonzero;fill:#48a936;fill-opacity:1;" d="M 1225.109375 318.023438 L 1306.753906 318.023438 C 1308.074219 320.667969 1307.640625 323.628906 1307.625 326.535156 L 1307.617188 328.609375 C 1307.613281 330.796875 1307.605469 332.988281 1307.59375 335.179688 C 1307.589844 336.660156 1307.585938 338.144531 1307.585938 339.628906 C 1307.574219 343.269531 1307.5625 346.90625 1307.546875 350.546875 C 1305.355469 351.277344 1303.960938 351.457031 1301.695312 351.503906 L 1299.582031 351.550781 L 1297.304688 351.589844 L 1294.96875 351.640625 C 1292.507812 351.691406 1290.042969 351.742188 1287.582031 351.785156 L 1282.574219 351.890625 C 1278.480469 351.976562 1274.382812 352.054688 1270.289062 352.132812 L 1269.5 363.238281 L 1303.582031 364.03125 C 1304.476562 372.972656 1304.476562 372.972656 1304.480469 376.132812 L 1304.484375 378.234375 L 1304.472656 380.34375 L 1304.484375 382.460938 C 1304.476562 386.953125 1304.152344 391.300781 1303.582031 395.761719 C 1301.4375 396.476562 1300.222656 396.648438 1298.023438 396.644531 L 1296.101562 396.644531 L 1294.035156 396.632812 L 1291.914062 396.628906 C 1289.675781 396.625 1287.441406 396.613281 1285.203125 396.605469 C 1283.6875 396.597656 1282.171875 396.59375 1280.652344 396.59375 C 1276.933594 396.582031 1273.214844 396.570312 1269.5 396.554688 L 1269.5 407.660156 L 1272.976562 407.71875 C 1277.222656 407.792969 1281.464844 407.871094 1285.710938 407.953125 C 1287.550781 407.988281 1289.390625 408.019531 1291.230469 408.054688 C 1293.867188 408.097656 1296.507812 408.148438 1299.144531 408.199219 L 1301.65625 408.242188 L 1303.960938 408.289062 L 1306.003906 408.328125 L 1307.546875 408.453125 L 1308.339844 409.246094 C 1309.695312 420.082031 1309.882812 431.742188 1308.339844 442.558594 L 1307.546875 443.351562 C 1306.472656 443.421875 1305.398438 443.453125 1304.320312 443.449219 L 1302.214844 443.453125 L 1299.886719 443.445312 L 1297.449219 443.445312 C 1294.78125 443.445312 1292.105469 443.4375 1289.433594 443.429688 L 1283.894531 443.425781 C 1279.023438 443.421875 1274.148438 443.417969 1269.277344 443.40625 C 1264.308594 443.402344 1259.34375 443.394531 1254.375 443.390625 C 1244.621094 443.382812 1234.863281 443.371094 1225.109375 443.351562 C 1224.015625 441.164062 1224.21875 439.402344 1224.214844 436.949219 L 1224.210938 433.835938 L 1224.214844 430.398438 L 1224.210938 426.792969 C 1224.207031 423.527344 1224.207031 420.257812 1224.210938 416.992188 C 1224.210938 413.578125 1224.210938 410.160156 1224.210938 406.746094 C 1224.207031 401.011719 1224.210938 395.277344 1224.214844 389.542969 C 1224.21875 382.90625 1224.21875 376.269531 1224.210938 369.632812 C 1224.210938 363.941406 1224.207031 358.25 1224.210938 352.558594 C 1224.210938 349.15625 1224.210938 345.753906 1224.210938 342.355469 C 1224.207031 339.15625 1224.207031 335.957031 1224.214844 332.757812 C 1224.214844 331.582031 1224.214844 330.40625 1224.210938 329.230469 C 1224.210938 327.628906 1224.210938 326.03125 1224.214844 324.429688 L 1224.21875 321.710938 C 1224.316406 319.613281 1224.316406 319.613281 1225.109375 318.023438 M 885.066406 318.023438 C 886.128906 317.957031 887.191406 317.921875 888.257812 317.929688 L 890.34375 317.925781 L 892.648438 317.933594 L 895.0625 317.933594 C 897.710938 317.933594 900.355469 317.941406 903 317.949219 L 908.488281 317.953125 C 913.316406 317.953125 918.140625 317.960938 922.964844 317.96875 C 927.886719 317.976562 932.804688 317.984375 937.726562 317.988281 C 947.386719 317.996094 957.046875 318.007812 966.707031 318.023438 C 966.835938 319.542969 966.96875 321.058594 967.097656 322.574219 L 967.316406 325.136719 C 967.953125 333.503906 967.8125 342.230469 966.707031 350.546875 L 965.914062 351.339844 C 964.796875 351.433594 963.671875 351.484375 962.550781 351.503906 L 960.386719 351.550781 L 958.035156 351.589844 L 955.640625 351.640625 C 953.101562 351.691406 950.566406 351.742188 948.03125 351.785156 L 942.886719 351.890625 C 938.671875 351.976562 934.460938 352.058594 930.246094 352.132812 C 930.113281 353.390625 929.980469 354.644531 929.847656 355.902344 L 929.625 358.019531 C 929.410156 360.25 929.410156 360.25 929.453125 363.238281 L 962.742188 364.03125 C 963.738281 367.011719 963.636719 369.785156 963.613281 372.890625 L 963.609375 374.800781 C 963.605469 376.8125 963.597656 378.824219 963.585938 380.835938 C 963.582031 382.203125 963.578125 383.566406 963.574219 384.933594 C 963.566406 388.277344 963.554688 391.621094 963.535156 394.96875 C 960.003906 396.71875 956.636719 396.824219 952.769531 396.882812 L 950.816406 396.929688 C 948.765625 396.976562 946.710938 397.011719 944.660156 397.050781 C 943.265625 397.078125 941.871094 397.109375 940.476562 397.140625 C 937.066406 397.21875 933.65625 397.285156 930.246094 397.347656 C 929.246094 399.347656 929.375 400.765625 929.402344 403 L 929.425781 405.1875 L 929.453125 406.867188 C 931.316406 407.796875 932.488281 407.78125 934.566406 407.820312 L 936.777344 407.867188 L 939.167969 407.910156 L 941.613281 407.960938 C 944.199219 408.011719 946.78125 408.058594 949.367188 408.105469 L 954.617188 408.207031 C 958.910156 408.292969 963.207031 408.375 967.5 408.453125 C 968.109375 410.625 968.390625 412.554688 968.394531 414.8125 L 968.402344 416.679688 L 968.398438 418.675781 L 968.402344 420.734375 C 968.402344 422.167969 968.398438 423.601562 968.394531 425.035156 C 968.390625 427.242188 968.394531 429.445312 968.402344 431.648438 C 968.402344 433.042969 968.398438 434.433594 968.398438 435.828125 L 968.402344 437.835938 C 968.390625 439.410156 968.355469 440.984375 968.292969 442.558594 L 967.5 443.351562 C 966.429688 443.425781 965.355469 443.457031 964.28125 443.453125 L 962.179688 443.460938 L 959.855469 443.457031 L 957.421875 443.460938 C 954.753906 443.460938 952.085938 443.460938 949.417969 443.457031 L 943.882812 443.460938 C 940.007812 443.460938 936.136719 443.460938 932.265625 443.457031 C 927.285156 443.453125 922.308594 443.453125 917.332031 443.460938 C 913.519531 443.460938 909.710938 443.460938 905.898438 443.460938 C 904.0625 443.460938 902.226562 443.460938 900.390625 443.460938 C 897.832031 443.460938 895.269531 443.460938 892.710938 443.457031 L 890.386719 443.460938 L 888.285156 443.453125 L 886.445312 443.453125 L 885.066406 443.351562 L 884.273438 442.558594 C 884.195312 440.964844 884.171875 439.367188 884.171875 437.773438 L 884.164062 434.617188 L 884.167969 431.125 L 884.164062 427.46875 C 884.164062 424.152344 884.164062 420.835938 884.164062 417.519531 C 884.167969 414.054688 884.164062 410.59375 884.164062 407.128906 C 884.164062 401.308594 884.164062 395.492188 884.167969 389.675781 C 884.171875 382.941406 884.171875 376.203125 884.167969 369.46875 C 884.164062 363.695312 884.164062 357.921875 884.164062 352.152344 C 884.167969 348.699219 884.167969 345.246094 884.164062 341.792969 C 884.164062 338.550781 884.164062 335.304688 884.167969 332.058594 C 884.167969 330.867188 884.167969 329.671875 884.167969 328.476562 C 884.164062 326.851562 884.167969 325.230469 884.171875 323.605469 L 884.171875 320.847656 L 884.273438 318.820312 Z M 1411.679688 321.191406 C 1421.191406 325.460938 1421.191406 325.460938 1424.0625 328.335938 C 1422.753906 331.738281 1421.445312 335.136719 1420.132812 338.539062 L 1418.796875 342 C 1418.152344 343.671875 1417.507812 345.339844 1416.867188 347.003906 L 1416.273438 348.546875 C 1414.976562 351.894531 1413.601562 355.191406 1412.175781 358.480469 C 1409.820312 357.5625 1407.492188 356.585938 1405.191406 355.550781 L 1403.550781 354.820312 C 1402.429688 354.316406 1401.308594 353.8125 1400.191406 353.308594 C 1394.683594 350.855469 1389.679688 350.007812 1383.640625 350.546875 C 1381.367188 351.152344 1379.453125 351.945312 1377.296875 352.925781 L 1376.503906 353.71875 C 1376.109375 355.601562 1376.109375 355.601562 1376.503906 357.6875 C 1379.410156 360.523438 1382.40625 361.691406 1386.242188 362.738281 L 1387.917969 363.222656 C 1390.257812 363.902344 1392.605469 364.558594 1394.949219 365.21875 C 1412.734375 370.246094 1412.734375 370.246094 1419.65625 376.523438 C 1423.277344 380.496094 1425.617188 384.808594 1427.035156 389.992188 C 1428.683594 398.066406 1428.425781 406.007812 1426.441406 414.003906 C 1423.90625 421.421875 1419.75 428.160156 1413.949219 433.449219 C 1405.242188 440.328125 1395.464844 443.785156 1384.558594 445.386719 C 1366.519531 447.492188 1349.078125 443.679688 1332.503906 436.613281 C 1328.9375 434.898438 1328.9375 434.898438 1327.363281 433.835938 L 1326.570312 432.25 C 1326.949219 430.707031 1326.949219 430.707031 1327.628906 428.804688 L 1328.394531 426.667969 L 1329.242188 424.367188 L 1330.101562 422.019531 C 1332.964844 414.367188 1336.402344 407.035156 1340.042969 399.726562 L 1342.109375 400.976562 C 1350.460938 405.9375 1359.277344 410.835938 1369.222656 411.03125 C 1373.21875 410.988281 1376.078125 410.1875 1379.675781 408.453125 L 1381.261719 406.070312 C 1381.304688 403.640625 1381.304688 403.640625 1380.46875 401.3125 C 1375.003906 397.191406 1366.386719 396.074219 1359.875 394.355469 C 1351.996094 392.246094 1344.453125 389.621094 1338.457031 383.863281 C 1334.894531 379.914062 1332.695312 376.039062 1331.375 370.875 C 1329.566406 361.179688 1330.613281 352.675781 1333.703125 343.40625 C 1335.011719 340.507812 1336.546875 338.015625 1338.457031 335.476562 L 1339.867188 333.605469 C 1344.964844 327.386719 1351.175781 323.601562 1358.570312 320.601562 C 1360.316406 319.988281 1362.066406 319.390625 1363.824219 318.820312 L 1366.070312 318.046875 C 1380.597656 313.859375 1397.8125 315.40625 1411.679688 321.191406 M 1121.273438 318.023438 C 1122.464844 317.953125 1123.660156 317.917969 1124.851562 317.921875 L 1127.164062 317.914062 L 1129.679688 317.917969 L 1132.253906 317.917969 C 1134.058594 317.917969 1135.863281 317.917969 1137.667969 317.921875 C 1140.417969 317.925781 1143.171875 317.921875 1145.929688 317.917969 C 1147.679688 317.917969 1149.429688 317.917969 1151.179688 317.917969 L 1153.671875 317.914062 L 1156.019531 317.921875 L 1158.070312 317.925781 C 1160.382812 318.039062 1162.597656 318.402344 1164.867188 318.820312 C 1165.480469 329.761719 1165.769531 340.714844 1165.738281 351.679688 L 1165.734375 356.089844 C 1165.730469 359.894531 1165.726562 363.699219 1165.714844 367.507812 C 1165.707031 372.109375 1165.703125 376.707031 1165.699219 381.308594 C 1165.691406 388.242188 1165.675781 395.175781 1165.660156 402.105469 L 1202.125 402.898438 C 1202.882812 405.175781 1203.015625 406.597656 1203.019531 408.960938 L 1203.027344 411.210938 L 1203.023438 413.640625 L 1203.023438 416.128906 C 1203.023438 417.867188 1203.023438 419.605469 1203.019531 421.34375 C 1203.015625 424.015625 1203.019531 426.683594 1203.023438 429.355469 C 1203.023438 431.039062 1203.023438 432.726562 1203.023438 434.410156 L 1203.027344 436.847656 L 1203.019531 439.085938 L 1203.015625 441.066406 L 1202.917969 442.558594 L 1202.125 443.351562 C 1199.730469 443.433594 1197.359375 443.460938 1194.964844 443.457031 L 1192.6875 443.460938 C 1190.191406 443.460938 1187.691406 443.460938 1185.191406 443.457031 L 1180 443.460938 C 1176.363281 443.460938 1172.726562 443.460938 1169.09375 443.457031 C 1164.433594 443.453125 1159.773438 443.453125 1155.113281 443.460938 C 1151.535156 443.460938 1147.957031 443.460938 1144.378906 443.460938 C 1142.660156 443.460938 1140.941406 443.460938 1139.222656 443.460938 C 1136.820312 443.460938 1134.414062 443.460938 1132.011719 443.457031 L 1129.859375 443.460938 L 1127.863281 443.453125 L 1126.144531 443.453125 C 1124.203125 443.339844 1122.378906 442.980469 1120.480469 442.558594 C 1120.460938 426.441406 1120.449219 410.320312 1120.441406 394.199219 C 1120.4375 386.714844 1120.429688 379.230469 1120.421875 371.746094 C 1120.414062 365.226562 1120.40625 358.703125 1120.40625 352.183594 C 1120.40625 348.730469 1120.402344 345.273438 1120.398438 341.820312 C 1120.390625 338.570312 1120.390625 335.324219 1120.390625 332.074219 C 1120.390625 330.878906 1120.390625 329.683594 1120.386719 328.488281 C 1120.382812 326.863281 1120.382812 325.238281 1120.386719 323.613281 L 1120.382812 320.847656 L 1120.480469 318.820312 Z M 717.816406 164.140625 L 720.195312 164.933594 L 720.195312 170.488281 L 718.609375 170.488281 L 718.609375 172.074219 L 717.023438 172.074219 C 716.925781 166.820312 716.925781 166.820312 717.816406 164.140625 "/></g></svg>