<svg xmlns="http://www.w3.org/2000/svg" xmlns:xlink="http://www.w3.org/1999/xlink" width="225" zoomAndPan="magnify" viewBox="0 0 168.75 168.749997" height="225" preserveAspectRatio="xMidYMid meet" version="1.2"><g id="98a6bff830"><path style=" stroke:none;fill-rule:evenodd;fill:#ffffff;fill-opacity:1;" d="M 77.15625 22.261719 C 62.910156 36.679688 6.726562 95.214844 4.261719 98.210938 C 0.195312 103.15625 0.835938 104.589844 11.859375 115.203125 C 22.898438 125.828125 24.988281 127.121094 28.414062 125.429688 C 29.660156 124.816406 43.511719 110.921875 59.191406 94.554688 C 74.875 78.1875 88.039062 64.800781 88.449219 64.800781 C 89.320312 64.800781 119.5 91.121094 119.5 91.882812 C 119.5 92.164062 116.449219 95.429688 112.71875 99.140625 L 105.9375 105.886719 L 93.292969 93.332031 C 82.832031 82.945312 80.246094 80.777344 78.339844 80.777344 C 76.457031 80.777344 74.238281 82.574219 66.214844 90.597656 C 57.140625 99.667969 56.394531 100.644531 56.394531 103.414062 C 56.394531 106.261719 57.519531 107.566406 78.476562 129.101562 C 90.625 141.578125 101.078125 151.984375 101.707031 152.230469 C 105.207031 153.570312 107 152.605469 113.835938 145.679688 C 140.828125 118.34375 166.347656 91.617188 166.945312 90.050781 C 167.339844 89.027344 167.441406 87.328125 167.179688 86.28125 C 166.714844 84.441406 97.011719 17.269531 92.464844 14.277344 C 88.347656 11.570312 87.054688 12.246094 77.15625 22.261719 "/></g></svg>